<?xml version="1.0" encoding="utf-8"?>
<!-- Generator: Adobe Illustrator 19.0.0, SVG Export Plug-In . SVG Version: 6.00 Build 0)  -->
<svg version="1.1" id="Capa_1" xmlns="http://www.w3.org/2000/svg" xmlns:xlink="http://www.w3.org/1999/xlink" x="0px" y="0px"
	 width="57.035px" height="49.209px" viewBox="0 0 57.035 49.209" enable-background="new 0 0 57.035 49.209" xml:space="preserve">
<path id="XMLID_5856_" fill="#FFFFFF" d="M41.518,1.847c-3.71,0-7.208,1.446-9.847,4.072c-0.791,0.787-1.878,1.878-3.143,3.153
	L25.34,5.9c-2.644-2.631-6.144-4.08-9.855-4.08c-3.672,0-7.129,1.428-9.734,4.019C3.145,8.433,1.71,11.877,1.71,15.535
	c0,3.695,1.457,7.18,4.104,9.813c3.043,3.027,21.795,21.512,21.984,21.698c0.232,0.228,0.534,0.343,0.837,0.343
	c0.303,0,0.607-0.116,0.84-0.347l21.754-21.646c2.642-2.628,4.096-6.112,4.096-9.808c0-3.666-1.438-7.116-4.05-9.715
	C48.665,3.276,45.2,1.847,41.518,1.847z M49.547,23.706L28.629,44.519C24.927,40.871,10.16,26.311,7.493,23.657
	c-2.193-2.182-3.4-5.067-3.4-8.124c0-3.019,1.186-5.862,3.34-8.005c2.155-2.145,5.015-3.326,8.054-3.326
	c3.076,0,5.979,1.203,8.173,3.387l4.033,4.013c0.224,0.224,0.522,0.344,0.845,0.348c0.316-0.001,0.619-0.129,0.842-0.353
	C31,9.963,32.395,8.563,33.352,7.609c2.191-2.18,5.091-3.379,8.168-3.379c3.047,0,5.914,1.183,8.075,3.333
	c2.158,2.147,3.347,4.997,3.347,8.025C52.942,18.646,51.735,21.528,49.547,23.706z"/>
</svg>
