<?xml version="1.0" encoding="utf-8"?>
<!-- Generator: Adobe Illustrator 20.1.0, SVG Export Plug-In . SVG Version: 6.00 Build 0)  -->
<svg version="1.1" id="Capa_1" xmlns="http://www.w3.org/2000/svg" xmlns:xlink="http://www.w3.org/1999/xlink" x="0px" y="0px"
	 viewBox="0 0 449.3 119" style="enable-background:new 0 0 449.3 119;" xml:space="preserve">
<style type="text/css">
	.st0{fill:#76A9DA;}
	.st1{fill:none;}
	.st2{fill:#FFFFFF;}
	.st3{fill:#001A5A;}
</style>
<g id="XMLID_1313_">
	<path id="XMLID_5031_" class="st0" d="M23.9,63c0.6-22.6,36.1-40,79.4-38.9c22.7,0.6,43,6.2,57.1,14.6
		C147,24.9,119.6,15.5,88.1,15.5c-44.9,0-81.3,19-81.3,42.5c0,17.4,19.9,32.3,48.5,38.9C35.9,88.9,23.6,76.6,23.9,63z"/>
	<polygon id="XMLID_1957_" class="st1" points="92.5,70.8 98.9,70.8 95.7,63.2 	"/>
	<path id="XMLID_1955_" class="st1" d="M400.9,62.8c-0.6-0.6-1.4-1.1-2.3-1.5s-1.8-0.6-2.8-0.6s-1.9,0.2-2.7,0.6
		c-0.8,0.4-1.5,0.9-2.1,1.6c-0.6,0.7-1,1.4-1.3,2.3s-0.5,1.8-0.5,2.8s0.2,2,0.5,2.9s0.8,1.6,1.3,2.3c0.6,0.6,1.3,1.2,2.1,1.5
		c0.8,0.4,1.7,0.6,2.7,0.6s1.9-0.2,2.8-0.5s1.6-0.8,2.3-1.4c0.6-0.6,1.2-1.3,1.6-2.2c0.4-0.8,0.6-1.7,0.7-2.7v-0.8
		c0-0.9-0.3-1.8-0.7-2.7C402,64.2,401.5,63.5,400.9,62.8z"/>
	<polygon id="XMLID_1952_" class="st2" points="80.2,46.5 73,46.5 73,66.5 51.2,45.8 51.2,82.8 58.5,82.8 58.5,62.7 79.3,82.5 
		80.2,80.4 	"/>
	<polygon id="XMLID_1951_" class="st3" points="80.2,83.4 80.2,82.7 79.4,82.7 	"/>
	<path id="XMLID_1944_" class="st2" d="M95.7,45.8L80.2,80.4v2.3H87c0.8-1.8,1.7-3.7,2.5-5.5l0,0h12.4c0.8,1.8,1.6,3.7,2.4,5.5h6.9
		v-2.2L95.7,45.8z M92.5,70.8l3.2-7.5l3.2,7.5H92.5z"/>
	<polygon id="XMLID_1939_" class="st3" points="79.2,82.7 79.4,82.7 79.3,82.5 	"/>
	<polygon id="XMLID_1879_" class="st3" points="79.3,82.5 79.4,82.7 80.2,82.7 80.2,80.4 	"/>
	<polygon id="XMLID_1874_" class="st2" points="132.9,66.5 111.2,45.8 111.2,80.5 112.2,82.7 111.2,82.7 111.2,82.8 118.4,82.8 
		118.4,62.7 140.2,83.4 140.2,46.5 132.9,46.5 	"/>
	<polygon id="XMLID_1873_" class="st3" points="111.2,80.5 111.2,82.7 112.2,82.7 	"/>
	<path id="XMLID_1868_" class="st2" d="M166.6,72.4v-0.3c-0.1,0.1-0.1,0.2-0.2,0.3c-2.2,2.1-4.7,3.2-7.8,3.2c-3,0-5.6-1.1-7.8-3.2
		c-2.1-2.1-3.2-4.7-3.2-7.8c0-3,1.1-5.6,3.2-7.8c1.1-1.1,2.2-1.9,3.5-2.4c-2.2-1.7-4-3.6-5.2-5.5c-1.2,0.8-2.4,1.7-3.5,2.8
		c-3.6,3.6-5.4,7.9-5.4,13s1.8,9.4,5.4,12.9c3.6,3.6,7.9,5.4,12.9,5.4s9.4-1.8,13-5.4c2.7-2.7,4.4-5.8,5.1-9.3
		C167.6,70.4,166.6,72.4,166.6,72.4z"/>
	<path id="XMLID_1867_" class="st0" d="M179,81c0,1.2,0.6,1.8,1.8,1.8h5.2c0.6,0,1.1-0.2,1.4-0.4c0.3-0.3,0.5-0.7,0.5-1.3V66.5
		c-3.5,0.4-6.4,0.9-8.9,1.4V81z"/>
	<path id="XMLID_1866_" class="st0" d="M187.7,61.3c1.7,0.1,3.5,0.3,5.5,0.4c0.1-0.3,0.2-0.6,0.2-1.1v-4.4c0-0.6-0.2-1-0.5-1.3l0,0
		c0,0.5-0.1,1.1-0.3,1.6C191.9,58.5,190.2,60.2,187.7,61.3z"/>
	<path id="XMLID_1865_" class="st0" d="M192.7,68.1c0,2.2,0.4,4.2,1.2,6s2,3.4,3.4,4.8s3.1,2.4,4.9,3.2c1.9,0.8,3.9,1.2,6,1.2
		c1.9,0,3.7-0.3,5.4-1s3.2-1.7,4.6-2.9c0.2-0.2,0.4-0.4,0.6-0.6c0.2-0.2,0.3-0.5,0.3-0.8c0-0.2,0-0.3-0.1-0.5c0-0.2-0.2-0.3-0.3-0.5
		l-2.4-2.8c-0.3-0.3-0.5-0.5-0.7-0.6s-0.4-0.2-0.6-0.2s-0.4,0.1-0.6,0.2c-0.2,0.1-0.4,0.2-0.6,0.4c-0.3,0.3-0.6,0.5-1.1,0.8
		s-1,0.5-1.5,0.7s-1.1,0.3-1.7,0.5c-0.6,0.1-1.2,0.2-1.7,0.2c-0.6,0-1.3-0.1-2-0.3c-0.7-0.2-1.3-0.4-2-0.8c-0.6-0.4-1.2-0.9-1.6-1.6
		c-0.5-0.7-0.8-1.5-0.9-2.5h16.6c1,0,1.7-0.1,2.2-0.2s0.9-0.3,1.1-0.6c0.2-0.3,0.3-0.7,0.4-1.2s0-1.2,0-2c0-0.9-0.1-1.8-0.3-2.7
		c-11.8,0.3-21,0.9-28.3,1.6C192.7,66.6,192.7,67.3,192.7,68.1z"/>
	<path id="XMLID_1864_" class="st0" d="M203.7,61.4c0.5-0.4,1-0.7,1.6-1c0.6-0.2,1.1-0.4,1.7-0.4c0.8,0,1.6,0.1,2.2,0.3
		c0.6,0.2,1.2,0.5,1.7,0.9s0.9,0.8,1.2,1.3c2.7,0.1,5.6,0.1,8.6,0.2c-0.3-1-0.8-1.9-1.3-2.8c-0.6-1-1.4-2-2.3-2.8
		c-0.9-0.9-1.8-1.6-2.9-2.2c-1.1-0.6-2.2-1.1-3.4-1.4c-1.2-0.3-2.4-0.5-3.7-0.5c-1.4,0-2.7,0.2-4,0.6c-1.3,0.4-2.4,0.9-3.5,1.5
		c-1.1,0.7-2,1.5-2.9,2.4s-1.6,1.9-2.2,3.1c-0.2,0.4-0.4,0.8-0.6,1.2c2.7,0.2,5.6,0.3,8.8,0.5C203.1,61.9,203.4,61.6,203.7,61.4z"/>
	<path id="XMLID_1861_" class="st0" d="M234.2,61.4c0.8-0.4,1.7-0.6,2.7-0.6c0.9,0,1.7,0.1,2.5,0.4c0.8,0.3,1.5,0.6,2.2,1.1
		c0.2,0.2,0.5,0.3,0.7,0.4c0.2,0.1,0.4,0.1,0.5,0.1c0.6,0,1.1-0.4,1.6-1.1l2.1-3.5c0.2-0.3,0.3-0.6,0.3-0.9c0-0.4-0.1-0.7-0.3-1
		s-0.5-0.5-0.8-0.7l0.1,0.1c-1.2-0.9-2.6-1.5-4-2c-1.4-0.4-3-0.7-4.6-0.7c-1.4,0-2.7,0.2-4,0.5c-1.3,0.4-2.5,0.9-3.6,1.5
		s-2.1,1.4-3,2.3c-0.9,0.9-1.7,1.9-2.4,3c-0.4,0.7-0.8,1.5-1.1,2.3c3,0,6.1,0.1,9.4,0.1C232.8,62.3,233.4,61.8,234.2,61.4z"/>
	<path id="XMLID_1860_" class="st0" d="M221.9,68.2c0,1.4,0.2,2.8,0.5,4.1c0.4,1.3,0.9,2.5,1.5,3.6s1.4,2.1,2.4,3.1
		c0.9,0.9,1.9,1.7,3,2.4c1.1,0.7,2.3,1.2,3.6,1.5c1.3,0.4,2.6,0.5,4,0.5c1.7,0,3.3-0.3,4.8-0.8s2.9-1.2,4.1-2.1
		c0.3-0.2,0.5-0.4,0.7-0.6s0.3-0.5,0.3-0.9c0-0.1,0-0.2-0.1-0.4c-0.1-0.2-0.1-0.3-0.2-0.4l-2.6-3.9c-0.2-0.4-0.5-0.6-0.7-0.7
		s-0.5-0.2-0.7-0.2c-0.1,0-0.3,0-0.4,0.1c-0.2,0-0.4,0.1-0.6,0.3c-0.7,0.5-1.4,0.9-2.2,1.2c-0.8,0.3-1.6,0.5-2.5,0.5
		c-1,0-1.9-0.2-2.7-0.6s-1.5-0.9-2.1-1.5s-1-1.4-1.3-2.3s-0.5-1.8-0.5-2.8s0.2-1.9,0.5-2.8c0.2-0.5,0.4-0.9,0.6-1.3
		c-3.1,0-6.1,0.1-9,0.2C222.1,65.4,221.9,66.8,221.9,68.2z"/>
	<path id="XMLID_1859_" class="st0" d="M266.4,65.9v15.2c0,0.6,0.1,1.1,0.4,1.3c0.2,0.2,0.7,0.3,1.4,0.3h5.3c0.6,0,1-0.2,1.2-0.4
		c0.3-0.3,0.4-0.7,0.4-1.3V65.9c0-0.5,0-1-0.1-1.6c-2.9-0.1-5.8-0.1-8.9-0.2C266.3,64.7,266.4,65.3,266.4,65.9z"/>
	<path id="XMLID_1858_" class="st0" d="M248.2,81c0,0.5,0.1,1,0.4,1.3c0.3,0.3,0.8,0.5,1.4,0.5h5.2c0.2,0,0.4,0,0.6-0.1
		s0.4-0.1,0.6-0.3c0.2-0.1,0.3-0.3,0.4-0.6c0.1-0.3,0.1-0.5,0.1-0.8V65.9c0-0.7,0.2-1.3,0.5-1.8c-3,0-6.1-0.1-9.3-0.1v17H248.2z"/>
	<path id="XMLID_1857_" class="st0" d="M258.6,62.5c0.4-0.4,0.9-0.7,1.4-0.9s1.1-0.3,1.6-0.3c0.6,0,1.3,0.1,1.8,0.4
		c0.6,0.2,1.1,0.6,1.5,1c0.1,0.1,0.2,0.2,0.3,0.3c3.3,0,6.4,0,9.5,0c-0.1-0.7-0.3-1.3-0.5-1.9c-0.5-1.6-1.2-2.9-2.2-4.1
		s-2.1-2.1-3.5-2.8s-2.9-1-4.7-1c-0.9,0-1.7,0.1-2.4,0.3c-0.7,0.2-1.4,0.5-1.9,0.8c-0.6,0.3-1,0.7-1.5,1.1c-0.4,0.4-0.8,0.8-1.1,1.3
		V46.5c0-0.2,0-0.5-0.1-0.7c-0.1-0.3-0.3-0.5-0.4-0.6c-0.4-0.2-0.8-0.4-1.2-0.4H250c-0.7,0-1.1,0.2-1.4,0.5
		c-0.3,0.3-0.4,0.7-0.4,1.3v8.6v0.1v6.9v0.2v0.7c3.5,0,6.8,0,10.1,0C258.4,62.8,258.5,62.6,258.6,62.5z"/>
	<path id="XMLID_1855_" class="st0" d="M288.7,62.6c0.5-0.4,1-0.8,1.6-1s1.1-0.4,1.7-0.4s1.3,0.1,1.9,0.4c0.6,0.3,1.2,0.6,1.7,1.1
		l0,0c3.5,0,6.8-0.1,9.9-0.1c-0.1-0.6-0.3-1.1-0.5-1.7c-0.6-1.6-1.3-2.9-2.3-4.1c-1-1.2-2.2-2.1-3.7-2.8c-1.4-0.7-3-1-4.8-1
		c-1.2,0-2.3,0.2-3.2,0.5c-0.9,0.4-1.7,0.8-2.4,1.3c-0.7,0.5-1.2,1.1-1.7,1.7c-0.4,0.6-0.8,1.1-1,1.6l-0.7-2.9
		c-0.1-0.2-0.2-0.5-0.2-0.7c-0.1-0.2-0.2-0.4-0.3-0.6c-0.1-0.2-0.3-0.3-0.5-0.4c-0.2-0.1-0.4-0.1-0.7-0.1H280c-0.2,0-0.4,0-0.6,0.1
		c-0.2,0-0.4,0.2-0.6,0.3l0.1-0.1c-0.2,0.1-0.4,0.3-0.5,0.6c-0.1,0.2-0.2,0.5-0.2,0.8v7.6C281.8,62.7,285.4,62.7,288.7,62.6
		C288.7,62.7,288.7,62.7,288.7,62.6z"/>
	<path id="XMLID_1851_" class="st0" d="M278.1,81c0,0.5,0.1,1,0.4,1.3s0.8,0.5,1.4,0.5h5.2c0.2,0,0.4,0,0.6-0.1s0.4-0.1,0.6-0.3
		c0.2-0.1,0.3-0.3,0.4-0.6c0.1-0.3,0.1-0.5,0.1-0.8V66c0-0.5,0.1-0.9,0.3-1.4c-2.9-0.1-6-0.2-9.2-0.3V81H278.1z"/>
	<path id="XMLID_1849_" class="st0" d="M297.2,66.1v15c0,0.6,0.1,1.1,0.4,1.3c0.2,0.2,0.7,0.3,1.4,0.3h5.3c0.6,0,1-0.2,1.2-0.4
		c0.3-0.3,0.4-0.7,0.4-1.3V65.9c0-0.1,0-0.2,0-0.4c-2.8-0.2-5.7-0.3-8.8-0.4C297.2,65.4,297.2,65.8,297.2,66.1z"/>
	<path id="XMLID_1848_" class="st0" d="M329,68.2c0,1-0.2,2-0.4,2.8c-0.3,0.9-0.7,1.6-1.3,2.3c-0.6,0.6-1.2,1.2-2.1,1.5
		c-0.8,0.4-1.7,0.6-2.7,0.6s-2-0.2-2.8-0.6s-1.5-0.9-2.1-1.5s-1-1.4-1.3-2.3s-0.5-1.8-0.5-2.8c0-0.7,0.1-1.3,0.2-2
		c-2.7-0.2-5.5-0.4-8.4-0.6c-0.1,0.8-0.2,1.7-0.2,2.5c0,1.4,0.2,2.8,0.5,4.1c0.4,1.3,0.9,2.5,1.5,3.6c0.7,1.1,1.4,2.1,2.4,3.1
		c0.9,0.9,1.9,1.7,3.1,2.4c1.1,0.7,2.3,1.2,3.6,1.5c1.3,0.4,2.7,0.5,4.1,0.5s2.7-0.2,4-0.5c1.3-0.4,2.5-0.9,3.6-1.5
		c1.1-0.7,2.1-1.4,3.1-2.4c0.9-0.9,1.7-1.9,2.4-3.1c0.7-1.1,1.2-2.3,1.5-3.6c0.3-1.2,0.5-2.5,0.5-3.9c-2.6-0.3-5.5-0.7-8.7-1
		C329,67.6,329,67.9,329,68.2z"/>
	<path id="XMLID_1844_" class="st0" d="M319.8,61.4c0.8-0.4,1.7-0.6,2.8-0.6c1,0,1.9,0.2,2.7,0.6c0.5,0.2,1,0.6,1.4,0.9
		c3.6-0.1,6.9-0.1,9.9-0.2c-0.8-1.8-1.8-3.3-3.2-4.7c-1.4-1.4-3-2.4-4.8-3.2s-3.8-1.2-5.9-1.2c-1.4,0-2.8,0.2-4.1,0.5
		c-1.3,0.4-2.5,0.9-3.6,1.5s-2.1,1.4-3.1,2.3c-0.9,0.9-1.7,1.9-2.4,3c-0.4,0.7-0.7,1.4-1,2.1c3.4,0,6.7-0.1,9.7-0.1
		C318.7,62,319.2,61.7,319.8,61.4z"/>
	<path id="XMLID_1842_" class="st0" d="M339.4,81c0,0.6,0.1,1,0.4,1.3c0.2,0.3,0.7,0.4,1.3,0.4h5.3c0.5,0,0.9-0.2,1.3-0.4
		c0.3-0.3,0.5-0.7,0.5-1.3V70c-2.4-0.5-5.3-1-8.8-1.4L339.4,81L339.4,81z"/>
	<path id="XMLID_1839_" class="st0" d="M348.2,46.6c0-0.3,0-0.5-0.1-0.7s-0.2-0.4-0.4-0.6c-0.1-0.2-0.3-0.3-0.5-0.4
		c-0.2-0.1-0.3-0.1-0.5-0.1h-5.6c-0.6,0-1,0.2-1.3,0.5c-0.2,0.3-0.4,0.8-0.4,1.2V62c3.4-0.1,6.3-0.2,8.8-0.3V46.6z"/>
	<path id="XMLID_1837_" class="st0" d="M375.8,57.4c-1.4-1.4-3-2.4-4.8-3.2s-3.8-1.2-5.9-1.2c-1.4,0-2.8,0.2-4.1,0.5
		c-1.3,0.4-2.5,0.9-3.6,1.5s-2.1,1.4-3.1,2.3c-0.9,0.9-1.7,1.9-2.4,3c-0.2,0.4-0.4,0.8-0.6,1.1C364,61,364,60.5,364,60.5l-0.1,0.4
		c0.4-0.1,0.7-0.1,1.1-0.1c1,0,1.9,0.2,2.7,0.6c0.8,0.4,1.5,0.9,2.1,1.6c0.6,0.7,1,1.5,1.3,2.4s0.4,1.8,0.4,2.8s-0.2,2-0.4,2.8
		c-0.3,0.9-0.7,1.6-1.3,2.3c-0.6,0.6-1.2,1.2-2.1,1.5c-0.8,0.4-1.7,0.6-2.7,0.6s-2-0.2-2.8-0.6c-0.5-0.2-1-0.5-1.4-0.9V74
		c0,0-1.5-1.7-10.7-3.6c0.1,0.6,0.2,1.2,0.4,1.8c0.4,1.3,0.9,2.5,1.5,3.6c0.7,1.1,1.4,2.1,2.4,3.1c0.9,0.9,1.9,1.7,3.1,2.4
		c1.1,0.7,2.3,1.2,3.6,1.5c1.3,0.4,2.7,0.5,4.1,0.5s2.7-0.2,4-0.5c1.3-0.4,2.5-0.9,3.6-1.5c1.1-0.7,2.1-1.4,3.1-2.4
		c0.9-0.9,1.7-1.9,2.4-3.1c0.7-1.1,1.2-2.3,1.5-3.6c0.4-1.3,0.5-2.7,0.5-4.1c0-2.1-0.4-4.1-1.2-6C378.2,60.4,377.2,58.8,375.8,57.4z
		"/>
	<path id="XMLID_1636_" class="st0" d="M410.9,54.3c-0.1-0.2-0.3-0.4-0.5-0.6c-0.2-0.2-0.4-0.3-0.6-0.3s-0.4-0.1-0.6-0.1h-3.4
		c-0.3,0-0.6,0-0.7,0.1c-0.2,0.1-0.3,0.2-0.5,0.3c-0.1,0.1-0.2,0.3-0.3,0.5c-0.1,0.2-0.2,0.5-0.3,0.7l-0.9,2.7
		c-0.5-0.6-0.9-1.1-1.5-1.7c-0.5-0.6-1.1-1.1-1.7-1.6s-1.3-0.8-2.1-1.1c-0.8-0.3-1.6-0.4-2.6-0.4c-2.1,0-4,0.4-5.8,1.2
		s-3.3,1.8-4.6,3.2c-1.3,1.4-2.3,3-3,4.8s-1.1,3.8-1.1,5.9s0.4,4.1,1.1,5.8c0.7,1.8,1.7,3.3,3,4.6s2.8,2.3,4.6,3
		c1.8,0.7,3.7,1.1,5.8,1.1c0.9,0,1.8-0.1,2.5-0.4s1.3-0.7,1.9-1.1c0.6-0.5,1.1-0.9,1.5-1.5c0.5-0.5,0.9-1,1.4-1.5c0,0.7,0,1.4,0,2
		c0,0.7-0.1,1.3-0.2,1.8c-0.2,0.7-0.5,1.3-1,1.8s-1.1,1-1.7,1.3c-0.7,0.4-1.4,0.6-2.1,0.8c-0.8,0.2-1.5,0.3-2.2,0.3
		c-0.4,0-0.9,0-1.4-0.1c-0.5,0-1-0.1-1.6-0.3c-0.5-0.1-1-0.3-1.5-0.5s-0.9-0.5-1.3-0.9c-0.5-0.4-1-0.6-1.3-0.6
		c-0.4,0-0.7,0.3-1.1,0.7l-2.2,3c-0.2,0.3-0.3,0.6-0.4,0.8c-0.1,0.3-0.1,0.5,0,0.7s0.2,0.4,0.3,0.6c0.1,0.2,0.3,0.3,0.5,0.5
		c0.7,0.6,1.5,1.1,2.3,1.6c0.9,0.5,1.8,0.8,2.7,1.1c0.9,0.3,1.9,0.5,2.8,0.7c1,0.1,1.8,0.2,2.7,0.2c2.1,0,4.1-0.3,6-1s3.5-1.7,4.8-3
		c1.4-1.3,2.4-2.9,3.2-4.7c0.8-1.9,1.2-4,1.2-6.4V55.1C411,54.8,411,54.5,410.9,54.3z M403.1,68.5c0,1-0.3,1.9-0.7,2.7
		c-0.4,0.8-0.9,1.6-1.6,2.2c-0.6,0.6-1.4,1.1-2.3,1.4s-1.8,0.5-2.8,0.5s-1.9-0.2-2.7-0.6c-0.8-0.4-1.5-0.9-2.1-1.5s-1-1.4-1.3-2.3
		s-0.5-1.8-0.5-2.9c0-1,0.2-1.9,0.5-2.8s0.8-1.7,1.3-2.3c0.6-0.7,1.3-1.2,2.1-1.6c0.8-0.4,1.7-0.6,2.7-0.6s1.9,0.2,2.8,0.6
		c0.9,0.4,1.6,0.9,2.3,1.5c0.6,0.6,1.2,1.4,1.6,2.2s0.6,1.7,0.7,2.7V68.5z"/>
	<path id="XMLID_1609_" class="st0" d="M442.4,54.1c-0.1-0.2-0.3-0.3-0.5-0.5c-0.2-0.1-0.6-0.2-1-0.2H435c-0.5,0-0.8,0.1-1.1,0.3
		c-0.3,0.2-0.5,0.5-0.6,1l-6.4,18.6l-6.5-18.6c-0.1-0.4-0.3-0.6-0.6-0.9c-0.2-0.2-0.6-0.4-0.9-0.4h-5.7c-0.8,0-1.3,0.2-1.6,0.7
		c-0.2,0.4-0.2,1,0,1.6l11,27l-3.6,9.4c0,0-0.1,0.1-0.1,0.2c-0.1,0.1-0.1,0.3-0.1,0.5c0,0.5,0.1,0.9,0.4,1.2
		c0.3,0.3,0.7,0.4,1.4,0.4h5.3c0.4,0,0.7-0.1,1-0.4s0.5-0.6,0.6-1l-0.1,0.1c0.2-0.6,0.5-1.4,0.9-2.5s0.9-2.3,1.5-3.7
		c0.6-1.4,1.2-3,1.9-4.7c0.7-1.7,1.4-3.5,2.1-5.3s1.5-3.7,2.2-5.6s1.5-3.8,2.3-5.6c0.7-1.9,1.5-3.6,2.2-5.3s1.3-3.3,1.9-4.7
		c0.1-0.2,0.2-0.5,0.2-0.7C442.5,54.5,442.5,54.3,442.4,54.1z"/>
	<path id="XMLID_1557_" class="st2" d="M171.6,51.7c-3.6-3.6-7.9-5.4-13-5.4c-3.4,0-6.4,0.8-9.2,2.5c1.8,1.8,4.1,3.6,6.8,5.1
		c0.8-0.2,1.6-0.3,2.4-0.3c3,0,5.6,1.1,7.8,3.2c0.2,0.2,0.4,0.4,0.5,0.6c0.3,0.3,0.5,0.6,0.7,0.9c1.6,0.4,3.1,0.6,4.6,0.8
		c1.1,0.1,2.2,0.2,3.3,0.2v-1.9C174.6,55.4,173.3,53.4,171.6,51.7z"/>
	<path id="XMLID_1315_" class="st0" d="M186.6,45.3C186.6,45.3,186.5,45.3,186.6,45.3c-0.2,0-0.2,0-0.3,0s-0.1,0-0.2,0l-5.2,1.8
		c-0.6,0.2-1,0.4-1.3,0.7c-0.3,0.2-0.5,0.6-0.5,1.1v5.5H179v4.7c4.2-0.5,7.5-2.1,9-4.7v-6.7C187.6,46.9,187.1,46.1,186.6,45.3z"/>
	<path id="XMLID_1314_" class="st0" d="M191.8,55.2c-2.3,6.5-14.3,8.1-26.8,3.6c-6.5-2.4-11.9-5.9-15.2-9.7
		c2.6,5.3,9.6,10.6,18.8,13.7c13,4.3,25.4,2.3,27.7-4.5c1.7-5-2.7-11.3-10.3-15.9C190.9,46.6,193.3,51.3,191.8,55.2z"/>
</g>
</svg>
