<?xml version="1.0" encoding="utf-8"?>
<!-- Generator: Adobe Illustrator 19.0.0, SVG Export Plug-In . SVG Version: 6.00 Build 0)  -->
<svg version="1.1" id="Capa_1" xmlns="http://www.w3.org/2000/svg" xmlns:xlink="http://www.w3.org/1999/xlink" x="0px" y="0px"
	 viewBox="0 0 449.3 163.2" style="enable-background:new 0 0 449.3 163.2;" xml:space="preserve">
<style type="text/css">
	.st0{fill:#76A9DA;}
	.st1{fill:#001A5A;}
	.st2{fill:none;}
</style>
<g id="XMLID_1313_">
	<path id="XMLID_5031_" class="st0" d="M23.9,63c0.6-22.6,36.1-40,79.4-38.9c22.7,0.6,43,6.2,57.1,14.6
		C147,24.9,119.6,15.5,88.1,15.5c-44.9,0-81.3,19-81.3,42.5c0,17.4,19.9,32.3,48.5,38.9C35.9,88.9,23.6,76.6,23.9,63z"/>
	<g id="XMLID_4401_">
		<g id="XMLID_361_">
			<path id="XMLID_410_" class="st1" d="M189.7,33.2c-0.7,0.5-1.7,0.7-2.7,0.7c-1.1,0-2-0.3-2.8-0.8c-0.8-0.5-1.5-1.2-2.1-2.1
				c-0.6-0.9-1-1.9-1.3-3.1c-0.3-1.2-0.5-2.5-0.5-4c0-1.4,0.2-2.8,0.5-4c0.3-1.2,0.8-2.3,1.3-3.1c0.6-0.9,1.3-1.6,2.1-2.1
				c0.8-0.5,1.8-0.8,2.8-0.8c1,0,1.8,0.2,2.7,0.6c0.8,0.4,1.5,0.9,2,1.7l-1.5,1.6c-0.4-0.6-0.8-1-1.4-1.3c-0.5-0.3-1.1-0.4-1.7-0.4
				c-0.7,0-1.4,0.2-1.9,0.6c-0.5,0.4-1,1-1.3,1.7c-0.3,0.7-0.6,1.5-0.8,2.5c-0.2,0.9-0.3,1.9-0.3,3c0,1.1,0.1,2,0.3,3
				c0.2,0.9,0.4,1.7,0.8,2.5c0.4,0.7,0.8,1.3,1.4,1.7c0.5,0.4,1.2,0.6,1.9,0.6c0.7,0,1.2-0.2,1.8-0.5c0.5-0.4,0.9-0.8,1.2-1.3
				l1.4,1.6C191,32.2,190.4,32.8,189.7,33.2z"/>
			<path id="XMLID_407_" class="st1" d="M203.7,26.7c0,1.1-0.1,2-0.3,2.9c-0.2,0.9-0.5,1.6-1,2.3c-0.4,0.6-0.9,1.1-1.5,1.5
				c-0.6,0.3-1.3,0.5-2.1,0.5c-0.7,0-1.4-0.2-2-0.5c-0.6-0.3-1.1-0.8-1.5-1.5c-0.4-0.6-0.7-1.4-1-2.3c-0.2-0.9-0.3-1.8-0.3-2.9
				s0.1-2.1,0.3-2.9c0.2-0.9,0.5-1.7,1-2.3c0.4-0.6,0.9-1.1,1.5-1.5c0.6-0.3,1.3-0.5,2.1-0.5s1.5,0.2,2.1,0.5
				c0.6,0.3,1.1,0.8,1.5,1.5c0.4,0.6,0.7,1.4,1,2.3C203.6,24.7,203.7,25.7,203.7,26.7z M201.4,26.7c0-0.7,0-1.4-0.1-2
				s-0.3-1.2-0.5-1.6c-0.2-0.5-0.5-0.8-0.8-1.1c-0.3-0.3-0.7-0.4-1.1-0.4c-0.4,0-0.8,0.1-1.1,0.4c-0.3,0.3-0.6,0.6-0.8,1.1
				c-0.2,0.5-0.4,1-0.5,1.6s-0.1,1.3-0.1,2c0,0.7,0,1.4,0.1,2c0.1,0.6,0.3,1.2,0.5,1.6c0.2,0.5,0.5,0.8,0.8,1.1
				c0.3,0.3,0.7,0.4,1.1,0.4c0.4,0,0.8-0.1,1.2-0.4c0.3-0.3,0.6-0.6,0.8-1.1c0.2-0.5,0.4-1,0.5-1.6
				C201.3,28.1,201.4,27.5,201.4,26.7z"/>
			<path id="XMLID_405_" class="st1" d="M208,33.4V13.2h2.3v20.3H208z"/>
			<path id="XMLID_402_" class="st1" d="M224.4,26.7c0,1.1-0.1,2-0.3,2.9c-0.2,0.9-0.5,1.6-1,2.3c-0.4,0.6-0.9,1.1-1.5,1.5
				c-0.6,0.3-1.3,0.5-2.1,0.5c-0.7,0-1.4-0.2-2-0.5c-0.6-0.3-1.1-0.8-1.5-1.5c-0.4-0.6-0.7-1.4-1-2.3c-0.2-0.9-0.3-1.8-0.3-2.9
				s0.1-2.1,0.3-2.9c0.2-0.9,0.5-1.7,1-2.3c0.4-0.6,0.9-1.1,1.5-1.5c0.6-0.3,1.3-0.5,2.1-0.5c0.8,0,1.5,0.2,2.1,0.5
				c0.6,0.3,1.1,0.8,1.5,1.5c0.4,0.6,0.7,1.4,1,2.3C224.3,24.7,224.4,25.7,224.4,26.7z M222,26.7c0-0.7,0-1.4-0.1-2
				s-0.3-1.2-0.5-1.6c-0.2-0.5-0.5-0.8-0.8-1.1c-0.3-0.3-0.7-0.4-1.1-0.4c-0.4,0-0.8,0.1-1.1,0.4c-0.3,0.3-0.6,0.6-0.8,1.1
				c-0.2,0.5-0.4,1-0.5,1.6s-0.1,1.3-0.1,2c0,0.7,0,1.4,0.1,2c0.1,0.6,0.3,1.2,0.5,1.6c0.2,0.5,0.5,0.8,0.8,1.1
				c0.3,0.3,0.7,0.4,1.1,0.4c0.4,0,0.8-0.1,1.2-0.4c0.3-0.3,0.6-0.6,0.8-1.1c0.2-0.5,0.4-1,0.5-1.6C222,28.1,222,27.5,222,26.7z"/>
			<path id="XMLID_400_" class="st1" d="M232.2,20.3c0.6-0.5,1.3-0.8,2.2-0.8c0.5,0,0.9,0.1,1.2,0.2c0.3,0.2,0.6,0.4,0.9,0.6
				c0.2,0.3,0.4,0.6,0.6,0.9c0.1,0.3,0.3,0.7,0.3,1h0.1c0.1-0.3,0.3-0.6,0.5-1c0.2-0.3,0.4-0.6,0.7-0.9c0.3-0.3,0.6-0.5,1-0.7
				c0.4-0.2,0.8-0.3,1.3-0.3c0.7,0,1.3,0.2,1.8,0.5c0.5,0.3,0.8,0.7,1,1.2c0.2,0.5,0.4,1.1,0.5,1.7c0.1,0.6,0.1,1.3,0.1,2v8.6h-2.3
				v-8.6c0-0.4,0-0.8-0.1-1.2c0-0.4-0.1-0.8-0.3-1.1c-0.1-0.3-0.3-0.6-0.6-0.8c-0.3-0.2-0.6-0.3-1-0.3c-0.4,0-0.7,0.1-1,0.3
				c-0.3,0.2-0.6,0.5-0.8,0.9c-0.2,0.4-0.4,0.8-0.5,1.3c-0.1,0.5-0.2,1.1-0.2,1.7v7.7h-2.3v-8.6c0-0.4,0-0.8-0.1-1.2
				c0-0.4-0.1-0.8-0.3-1.1c-0.1-0.3-0.3-0.6-0.6-0.8c-0.3-0.2-0.6-0.3-1-0.3c-0.4,0-0.7,0.1-1,0.3c-0.3,0.2-0.6,0.5-0.8,0.9
				c-0.2,0.4-0.4,0.8-0.5,1.3c-0.1,0.5-0.2,1.1-0.2,1.7v7.7h-2.3v-10c0-0.5,0-1.1,0-1.7c0-0.6,0-1.2-0.1-1.7h2.2
				c0.1,0.4,0.1,0.9,0.1,1.3c0,0.4,0,0.8,0,1h0.1C231.2,21.5,231.6,20.9,232.2,20.3z"/>
			<path id="XMLID_397_" class="st1" d="M249.3,13.2h2.3v8.7h0.1c0.2-0.7,0.6-1.3,1.1-1.7c0.5-0.4,1.2-0.7,2-0.7
				c0.7,0,1.3,0.2,1.8,0.5c0.5,0.3,1,0.8,1.4,1.5c0.4,0.6,0.6,1.4,0.8,2.3c0.2,0.9,0.3,1.8,0.3,2.9c0,1.1-0.1,2-0.3,2.9
				c-0.2,0.9-0.5,1.6-0.8,2.3c-0.4,0.6-0.8,1.1-1.4,1.5c-0.5,0.4-1.1,0.5-1.8,0.5c-0.9,0-1.6-0.2-2.1-0.7c-0.5-0.5-0.8-1.1-1-1.8
				h-0.1v2.1h-2.2V13.2z M251.6,26.7c0,0.7,0.1,1.4,0.2,2c0.1,0.6,0.3,1.2,0.5,1.6c0.2,0.5,0.5,0.8,0.8,1.1c0.3,0.3,0.7,0.4,1.1,0.4
				c0.4,0,0.8-0.1,1.1-0.4c0.3-0.3,0.6-0.6,0.8-1.1c0.2-0.5,0.4-1,0.5-1.6c0.1-0.6,0.1-1.3,0.1-2c0-0.7,0-1.4-0.1-2
				s-0.3-1.2-0.5-1.6c-0.2-0.5-0.5-0.8-0.8-1.1c-0.3-0.3-0.7-0.4-1.1-0.4c-0.4,0-0.8,0.1-1.1,0.4c-0.3,0.3-0.6,0.6-0.8,1.1
				c-0.2,0.5-0.4,1-0.5,1.6C251.6,25.3,251.6,26,251.6,26.7z"/>
			<path id="XMLID_394_" class="st1" d="M265.9,16c0,0.4-0.1,0.8-0.4,1.1c-0.3,0.3-0.6,0.4-1,0.4c-0.4,0-0.7-0.1-1-0.4
				c-0.3-0.3-0.4-0.7-0.4-1.1c0-0.4,0.1-0.8,0.4-1.1c0.3-0.3,0.6-0.4,1-0.4c0.4,0,0.8,0.1,1,0.4C265.8,15.2,265.9,15.6,265.9,16z
				 M263.3,33.4V20h2.3v13.4H263.3z"/>
			<path id="XMLID_391_" class="st1" d="M276.5,33.4c-0.1-0.4-0.1-0.8-0.2-1.2c0-0.4-0.1-0.7-0.1-1h-0.1c-0.2,0.8-0.5,1.4-1.1,1.9
				c-0.5,0.5-1.2,0.7-2.1,0.7c-0.4,0-0.8-0.1-1.2-0.2c-0.4-0.1-0.7-0.4-1.1-0.7c-0.3-0.3-0.6-0.7-0.8-1.2c-0.2-0.5-0.3-1.1-0.3-1.8
				c0-1,0.2-1.8,0.5-2.4c0.3-0.6,0.8-1.1,1.3-1.4c0.5-0.3,1.1-0.6,1.8-0.7c0.6-0.1,1.3-0.2,1.8-0.2h0.9v-0.6c0-1.1-0.2-1.8-0.6-2.3
				c-0.4-0.5-0.9-0.7-1.6-0.7c-0.5,0-1,0.1-1.4,0.4c-0.4,0.3-0.8,0.6-1.1,1l-1.2-1.4c0.4-0.6,1-1.1,1.7-1.4c0.7-0.3,1.4-0.5,2.1-0.5
				c0.8,0,1.4,0.1,1.9,0.4c0.5,0.3,1,0.6,1.3,1.1c0.3,0.5,0.5,1.1,0.7,1.8c0.1,0.7,0.2,1.5,0.2,2.4v5.4c0,0.5,0,1,0.1,1.5
				c0,0.5,0.1,1,0.1,1.3H276.5z M276.1,26.8h-1c-0.4,0-0.8,0-1.2,0.1c-0.4,0.1-0.7,0.2-1,0.4c-0.3,0.2-0.5,0.5-0.7,0.8
				c-0.2,0.4-0.3,0.8-0.3,1.4c0,0.8,0.2,1.4,0.5,1.8c0.4,0.4,0.8,0.6,1.2,0.6c0.5,0,0.9-0.1,1.2-0.4c0.3-0.3,0.6-0.6,0.8-1.1
				c0.2-0.4,0.3-0.9,0.4-1.4c0.1-0.5,0.1-1,0.1-1.5V26.8z"/>
			<path id="XMLID_389_" class="st1" d="M281.9,27.3v-1.8h4.2v1.8H281.9z"/>
			<path id="XMLID_387_" class="st1" d="M301,29.6c-0.2,0.8-0.5,1.6-1,2.2c-0.4,0.6-1,1.1-1.8,1.5c-0.7,0.4-1.6,0.5-2.7,0.5
				c-1.1,0-1.9-0.2-2.6-0.5s-1.3-0.9-1.7-1.5c-0.4-0.6-0.8-1.4-1-2.2c-0.2-0.8-0.3-1.7-0.3-2.7V14.5h2.4v12.2c0,0.6,0,1.3,0.1,1.9
				c0.1,0.6,0.3,1.1,0.5,1.6c0.2,0.5,0.6,0.8,1,1.1c0.4,0.3,1,0.4,1.6,0.4c0.6,0,1.2-0.1,1.6-0.4c0.4-0.3,0.7-0.6,1-1.1
				c0.2-0.5,0.4-1,0.5-1.6c0.1-0.6,0.1-1.2,0.1-1.9V14.5h2.4v12.5C301.3,27.9,301.2,28.8,301,29.6z"/>
			<path id="XMLID_385_" class="st1" d="M308.2,32c0,0.5-0.1,0.8-0.4,1.2c-0.3,0.3-0.7,0.5-1.1,0.5c-0.4,0-0.8-0.2-1.1-0.5
				c-0.3-0.3-0.4-0.7-0.4-1.2c0-0.4,0.1-0.8,0.4-1.2c0.3-0.3,0.6-0.5,1.1-0.5c0.4,0,0.8,0.2,1.1,0.5C308.1,31.2,308.2,31.6,308.2,32
				z"/>
			<path id="XMLID_383_" class="st1" d="M321.5,28.4c0,0.9-0.1,1.6-0.4,2.3c-0.3,0.7-0.6,1.3-1.1,1.7c-0.5,0.5-1,0.8-1.6,1.1
				c-0.6,0.2-1.3,0.4-2,0.4c-1,0-1.9-0.2-2.7-0.6c-0.9-0.4-1.6-0.9-2.1-1.6L313,30c0.4,0.5,0.9,1,1.5,1.3c0.6,0.3,1.2,0.5,1.9,0.5
				c0.8,0,1.5-0.3,2-0.8c0.5-0.5,0.8-1.3,0.8-2.3c0-0.5-0.1-0.9-0.2-1.3c-0.2-0.4-0.4-0.7-0.7-1c-0.3-0.3-0.6-0.6-1-0.8
				c-0.4-0.2-0.8-0.5-1.2-0.7c-0.5-0.2-1-0.5-1.5-0.8c-0.5-0.3-0.9-0.7-1.2-1.1c-0.4-0.4-0.6-0.9-0.8-1.5c-0.2-0.6-0.3-1.2-0.3-2
				c0-0.9,0.1-1.7,0.4-2.4c0.3-0.7,0.7-1.2,1.1-1.7c0.5-0.4,1-0.8,1.6-1c0.6-0.2,1.2-0.3,1.8-0.3c0.9,0,1.7,0.2,2.5,0.5
				c0.7,0.3,1.3,0.8,1.8,1.4l-1.4,1.7c-0.7-0.9-1.6-1.3-2.7-1.3c-0.3,0-0.7,0.1-1,0.2c-0.3,0.1-0.6,0.3-0.9,0.6
				c-0.3,0.3-0.5,0.6-0.6,1c-0.2,0.4-0.2,0.9-0.2,1.4c0,0.5,0.1,0.9,0.2,1.2c0.2,0.3,0.4,0.7,0.6,0.9c0.3,0.3,0.6,0.5,0.9,0.8
				c0.3,0.2,0.7,0.4,1.1,0.6c0.5,0.3,1,0.5,1.5,0.8c0.5,0.3,0.9,0.7,1.3,1.1c0.4,0.4,0.7,0.9,1,1.5C321.4,27,321.5,27.6,321.5,28.4z
				"/>
			<path id="XMLID_381_" class="st1" d="M328.4,32c0,0.5-0.1,0.8-0.4,1.2c-0.3,0.3-0.7,0.5-1.1,0.5c-0.4,0-0.8-0.2-1.1-0.5
				c-0.3-0.3-0.4-0.7-0.4-1.2c0-0.4,0.1-0.8,0.4-1.2c0.3-0.3,0.6-0.5,1.1-0.5c0.4,0,0.8,0.2,1.1,0.5C328.2,31.2,328.4,31.6,328.4,32
				z"/>
			<path id="XMLID_379_" class="st1" d="M352.1,33.4H349l-2.8-15.4h-0.1l-2.8,15.4h-3.1l-3.6-19h2.5l2.8,15.8h0.1l2.9-15.8h2.8
				l3,15.8h0.1l2.8-15.8h2.4L352.1,33.4z"/>
			<path id="XMLID_376_" class="st1" d="M367.8,26.7c0,1.1-0.1,2-0.3,2.9c-0.2,0.9-0.5,1.6-1,2.3c-0.4,0.6-0.9,1.1-1.5,1.5
				c-0.6,0.3-1.3,0.5-2.1,0.5c-0.7,0-1.4-0.2-2-0.5c-0.6-0.3-1.1-0.8-1.5-1.5c-0.4-0.6-0.7-1.4-1-2.3c-0.2-0.9-0.3-1.8-0.3-2.9
				s0.1-2.1,0.3-2.9c0.2-0.9,0.5-1.7,1-2.3c0.4-0.6,0.9-1.1,1.5-1.5c0.6-0.3,1.3-0.5,2.1-0.5c0.8,0,1.5,0.2,2.1,0.5
				c0.6,0.3,1.1,0.8,1.5,1.5c0.4,0.6,0.7,1.4,1,2.3C367.7,24.7,367.8,25.7,367.8,26.7z M365.5,26.7c0-0.7,0-1.4-0.1-2
				s-0.3-1.2-0.5-1.6c-0.2-0.5-0.5-0.8-0.8-1.1c-0.3-0.3-0.7-0.4-1.1-0.4c-0.4,0-0.8,0.1-1.1,0.4c-0.3,0.3-0.6,0.6-0.8,1.1
				c-0.2,0.5-0.4,1-0.5,1.6s-0.1,1.3-0.1,2c0,0.7,0,1.4,0.1,2c0.1,0.6,0.3,1.2,0.5,1.6c0.2,0.5,0.5,0.8,0.8,1.1
				c0.3,0.3,0.7,0.4,1.1,0.4c0.4,0,0.8-0.1,1.2-0.4c0.3-0.3,0.6-0.6,0.8-1.1c0.2-0.5,0.4-1,0.5-1.6
				C365.4,28.1,365.5,27.5,365.5,26.7z"/>
			<path id="XMLID_374_" class="st1" d="M375.6,20.3c0.5-0.5,1.1-0.8,1.8-0.8c0.1,0,0.2,0,0.3,0l-0.1,2.4c-0.1,0-0.1,0-0.2,0
				c-0.1,0-0.2,0-0.2,0c-0.4,0-0.8,0.1-1.1,0.4c-0.3,0.3-0.6,0.6-0.8,1.1c-0.2,0.4-0.4,1-0.5,1.5c-0.1,0.6-0.2,1.1-0.2,1.7v6.8h-2.3
				v-10c0-0.5,0-1.1,0-1.7c0-0.6,0-1.2-0.1-1.7h2.2c0.1,0.4,0.1,0.9,0.1,1.4c0,0.5,0,0.9,0,1.4h0.1
				C374.7,21.7,375.1,20.8,375.6,20.3z"/>
			<path id="XMLID_372_" class="st1" d="M387.4,33.4l-4.2-6.6h-0.1v6.6h-2.3V13.2h2.3v12.6h0.1l3.9-5.8h2.7l-4.6,6.2l4.8,7.2H387.4z
				"/>
			<path id="XMLID_370_" class="st1" d="M398.5,22.5c-0.2-0.3-0.5-0.6-0.9-0.8c-0.4-0.2-0.8-0.3-1.3-0.3c-0.5,0-0.9,0.2-1.3,0.5
				c-0.3,0.4-0.5,0.9-0.5,1.5c0,0.6,0.2,1.1,0.5,1.4c0.3,0.3,0.9,0.6,1.6,0.8c0.4,0.1,0.7,0.3,1.1,0.5c0.4,0.2,0.7,0.5,1,0.8
				c0.3,0.3,0.5,0.7,0.7,1.1c0.2,0.4,0.3,1,0.3,1.6c0,0.7-0.1,1.3-0.3,1.8c-0.2,0.5-0.5,1-0.9,1.3c-0.4,0.4-0.8,0.6-1.3,0.8
				c-0.5,0.2-1,0.3-1.6,0.3c-0.8,0-1.5-0.2-2.2-0.5c-0.7-0.3-1.2-0.8-1.7-1.3l1.3-1.5c0.3,0.4,0.7,0.7,1.1,1
				c0.4,0.3,0.9,0.4,1.5,0.4c0.6,0,1-0.2,1.4-0.6c0.3-0.4,0.5-0.9,0.5-1.6c0-0.4-0.1-0.7-0.2-1c-0.1-0.3-0.3-0.5-0.5-0.7
				c-0.2-0.2-0.5-0.3-0.8-0.5c-0.3-0.1-0.6-0.3-1-0.4c-0.3-0.1-0.7-0.3-1-0.5c-0.3-0.2-0.6-0.4-0.9-0.7c-0.3-0.3-0.5-0.7-0.6-1.1
				c-0.2-0.4-0.2-0.9-0.2-1.5c0-0.6,0.1-1.1,0.3-1.6c0.2-0.5,0.5-0.9,0.8-1.2c0.4-0.3,0.8-0.6,1.3-0.8c0.5-0.2,1-0.3,1.6-0.3
				c0.8,0,1.5,0.1,2.1,0.4c0.6,0.3,1.1,0.6,1.4,1.1L398.5,22.5z"/>
			<path id="XMLID_368_" class="st1" d="M406,33.4h-2.3V13.2h2.3v9.1h0.1c0.2-0.8,0.6-1.4,1.2-1.9c0.6-0.5,1.3-0.8,2.1-0.8
				c0.7,0,1.3,0.2,1.8,0.5c0.5,0.3,0.8,0.7,1,1.2c0.2,0.5,0.4,1.1,0.5,1.7c0.1,0.6,0.1,1.3,0.1,2v8.6h-2.3v-8.6c0-0.4,0-0.8-0.1-1.2
				c0-0.4-0.1-0.8-0.3-1.1c-0.1-0.3-0.3-0.6-0.6-0.8c-0.3-0.2-0.6-0.3-1-0.3c-0.4,0-0.7,0.1-1,0.3c-0.3,0.2-0.6,0.5-0.8,0.9
				c-0.2,0.4-0.4,0.8-0.5,1.3c-0.1,0.5-0.2,1.1-0.2,1.7V33.4z"/>
			<path id="XMLID_365_" class="st1" d="M426.8,26.7c0,1.1-0.1,2-0.3,2.9c-0.2,0.9-0.5,1.6-1,2.3c-0.4,0.6-0.9,1.1-1.5,1.5
				c-0.6,0.3-1.3,0.5-2.1,0.5c-0.7,0-1.4-0.2-2-0.5c-0.6-0.3-1.1-0.8-1.5-1.5c-0.4-0.6-0.7-1.4-1-2.3c-0.2-0.9-0.3-1.8-0.3-2.9
				s0.1-2.1,0.3-2.9c0.2-0.9,0.5-1.7,1-2.3c0.4-0.6,0.9-1.1,1.5-1.5c0.6-0.3,1.3-0.5,2.1-0.5c0.8,0,1.5,0.2,2.1,0.5
				c0.6,0.3,1.1,0.8,1.5,1.5c0.4,0.6,0.7,1.4,1,2.3C426.7,24.7,426.8,25.7,426.8,26.7z M424.4,26.7c0-0.7,0-1.4-0.1-2
				s-0.3-1.2-0.5-1.6c-0.2-0.5-0.5-0.8-0.8-1.1c-0.3-0.3-0.7-0.4-1.1-0.4c-0.4,0-0.8,0.1-1.1,0.4c-0.3,0.3-0.6,0.6-0.8,1.1
				c-0.2,0.5-0.4,1-0.5,1.6s-0.1,1.3-0.1,2c0,0.7,0,1.4,0.1,2c0.1,0.6,0.3,1.2,0.5,1.6c0.2,0.5,0.5,0.8,0.8,1.1
				c0.3,0.3,0.7,0.4,1.1,0.4c0.4,0,0.8-0.1,1.2-0.4c0.3-0.3,0.6-0.6,0.8-1.1c0.2-0.5,0.4-1,0.5-1.6
				C424.4,28.1,424.4,27.5,424.4,26.7z"/>
			<path id="XMLID_362_" class="st1" d="M433.3,20v2.1h0.1c0.2-0.7,0.6-1.3,1-1.8c0.5-0.5,1.2-0.7,2.1-0.7c0.7,0,1.3,0.2,1.8,0.5
				c0.5,0.4,1,0.9,1.4,1.5c0.4,0.6,0.6,1.4,0.8,2.3c0.2,0.9,0.3,1.8,0.3,2.9c0,1-0.1,2-0.3,2.9c-0.2,0.9-0.5,1.6-0.8,2.3
				c-0.4,0.6-0.8,1.1-1.4,1.5c-0.5,0.4-1.2,0.5-1.8,0.5c-0.8,0-1.4-0.2-2-0.7c-0.5-0.5-0.9-1-1.1-1.7h-0.1v8.4h-2.3V20H433.3z
				 M433.3,26.7c0,0.7,0.1,1.4,0.2,2c0.1,0.6,0.3,1.2,0.5,1.6c0.2,0.5,0.5,0.8,0.8,1.1c0.3,0.3,0.7,0.4,1.1,0.4
				c0.4,0,0.8-0.1,1.1-0.4c0.3-0.3,0.6-0.6,0.8-1.1c0.2-0.5,0.4-1,0.5-1.6s0.1-1.3,0.1-2c0-0.7,0-1.4-0.1-2s-0.3-1.2-0.5-1.6
				c-0.2-0.5-0.5-0.8-0.8-1.1c-0.3-0.3-0.7-0.4-1.1-0.4c-0.4,0-0.8,0.1-1.1,0.4c-0.3,0.3-0.6,0.6-0.8,1.1c-0.2,0.5-0.4,1-0.5,1.6
				C433.3,25.3,433.3,26,433.3,26.7z"/>
		</g>
	</g>
	<g id="XMLID_1991_">
		<g id="XMLID_802_">
			<path id="XMLID_914_" class="st1" d="M74.8,118.8c-0.7,0.5-1.7,0.7-2.7,0.7c-1.1,0-2-0.3-2.8-0.8c-0.8-0.5-1.5-1.2-2.1-2.1
				c-0.6-0.9-1-1.9-1.3-3.1c-0.3-1.2-0.5-2.5-0.5-4c0-1.4,0.2-2.8,0.5-4c0.3-1.2,0.8-2.3,1.3-3.1c0.6-0.9,1.3-1.6,2.1-2.1
				c0.8-0.5,1.8-0.8,2.8-0.8c1,0,1.8,0.2,2.7,0.6c0.8,0.4,1.5,0.9,2,1.7l-1.5,1.6c-0.4-0.6-0.8-1-1.4-1.3c-0.5-0.3-1.1-0.4-1.7-0.4
				c-0.7,0-1.4,0.2-1.9,0.6c-0.5,0.4-1,1-1.3,1.7c-0.3,0.7-0.6,1.5-0.8,2.5c-0.2,0.9-0.3,1.9-0.3,3c0,1.1,0.1,2,0.3,3
				c0.2,0.9,0.4,1.7,0.8,2.5c0.4,0.7,0.8,1.3,1.4,1.7c0.5,0.4,1.2,0.6,1.9,0.6c0.7,0,1.2-0.2,1.8-0.5c0.5-0.4,0.9-0.8,1.2-1.3
				l1.4,1.6C76.1,117.8,75.5,118.4,74.8,118.8z"/>
			<path id="XMLID_912_" class="st1" d="M82.4,119h-2.3V98.8h2.3v9.1h0.1c0.2-0.8,0.6-1.4,1.2-1.9c0.6-0.5,1.3-0.8,2.1-0.8
				c0.7,0,1.3,0.2,1.8,0.5c0.5,0.3,0.8,0.7,1,1.2c0.2,0.5,0.4,1.1,0.5,1.7s0.1,1.3,0.1,2v8.6h-2.3v-8.6c0-0.4,0-0.8-0.1-1.2
				c0-0.4-0.1-0.8-0.3-1.1c-0.1-0.3-0.3-0.6-0.6-0.8c-0.3-0.2-0.6-0.3-1-0.3c-0.4,0-0.7,0.1-1,0.3c-0.3,0.2-0.6,0.5-0.8,0.9
				c-0.2,0.4-0.4,0.8-0.5,1.3c-0.1,0.5-0.2,1.1-0.2,1.7V119z"/>
			<path id="XMLID_909_" class="st1" d="M100,119c-0.1-0.4-0.1-0.8-0.2-1.2c0-0.4-0.1-0.7-0.1-1h-0.1c-0.2,0.8-0.5,1.4-1.1,1.9
				c-0.5,0.5-1.2,0.7-2.1,0.7c-0.4,0-0.8-0.1-1.2-0.2c-0.4-0.1-0.7-0.4-1.1-0.7c-0.3-0.3-0.6-0.7-0.8-1.2c-0.2-0.5-0.3-1.1-0.3-1.8
				c0-1,0.2-1.8,0.5-2.4s0.8-1.1,1.3-1.4c0.5-0.3,1.1-0.6,1.8-0.7c0.6-0.1,1.3-0.2,1.8-0.2h0.9v-0.6c0-1.1-0.2-1.8-0.6-2.3
				c-0.4-0.5-0.9-0.7-1.6-0.7c-0.5,0-1,0.1-1.4,0.4c-0.4,0.3-0.8,0.6-1.1,1l-1.2-1.4c0.4-0.6,1-1.1,1.7-1.4c0.7-0.3,1.4-0.5,2.1-0.5
				c0.8,0,1.4,0.1,1.9,0.4c0.5,0.3,1,0.6,1.3,1.1c0.3,0.5,0.5,1.1,0.7,1.8c0.1,0.7,0.2,1.5,0.2,2.4v5.4c0,0.5,0,1,0.1,1.5
				c0,0.5,0.1,1,0.1,1.3H100z M99.6,112.4h-1c-0.4,0-0.8,0-1.2,0.1c-0.4,0.1-0.7,0.2-1,0.4c-0.3,0.2-0.5,0.5-0.7,0.8
				c-0.2,0.4-0.3,0.8-0.3,1.4c0,0.8,0.2,1.4,0.5,1.8c0.4,0.4,0.8,0.6,1.2,0.6c0.5,0,0.9-0.1,1.2-0.4c0.3-0.3,0.6-0.6,0.8-1.1
				c0.2-0.4,0.3-0.9,0.4-1.4c0.1-0.5,0.1-1,0.1-1.5V112.4z"/>
			<path id="XMLID_907_" class="st1" d="M109.9,105.9c0.5-0.5,1.1-0.8,1.8-0.8c0.1,0,0.2,0,0.3,0l-0.1,2.4c-0.1,0-0.1,0-0.2,0
				c-0.1,0-0.2,0-0.2,0c-0.4,0-0.8,0.1-1.1,0.4c-0.3,0.3-0.6,0.6-0.8,1.1c-0.2,0.4-0.4,1-0.5,1.5c-0.1,0.6-0.2,1.1-0.2,1.7v6.8h-2.3
				v-10c0-0.5,0-1.1,0-1.7c0-0.6,0-1.2-0.1-1.7h2.2c0.1,0.4,0.1,0.9,0.1,1.4c0,0.5,0,0.9,0,1.4h0.1
				C109,107.3,109.4,106.4,109.9,105.9z"/>
			<path id="XMLID_904_" class="st1" d="M120.8,119c-0.1-0.4-0.1-0.8-0.2-1.2c0-0.4-0.1-0.7-0.1-1h-0.1c-0.2,0.8-0.5,1.4-1.1,1.9
				c-0.5,0.5-1.2,0.7-2.1,0.7c-0.4,0-0.8-0.1-1.2-0.2c-0.4-0.1-0.7-0.4-1.1-0.7c-0.3-0.3-0.6-0.7-0.8-1.2c-0.2-0.5-0.3-1.1-0.3-1.8
				c0-1,0.2-1.8,0.5-2.4s0.8-1.1,1.3-1.4c0.5-0.3,1.1-0.6,1.8-0.7c0.6-0.1,1.3-0.2,1.8-0.2h0.9v-0.6c0-1.1-0.2-1.8-0.6-2.3
				c-0.4-0.5-0.9-0.7-1.6-0.7c-0.5,0-1,0.1-1.4,0.4c-0.4,0.3-0.8,0.6-1.1,1l-1.2-1.4c0.4-0.6,1-1.1,1.7-1.4c0.7-0.3,1.4-0.5,2.1-0.5
				c0.8,0,1.4,0.1,1.9,0.4c0.5,0.3,1,0.6,1.3,1.1c0.3,0.5,0.5,1.1,0.7,1.8c0.1,0.7,0.2,1.5,0.2,2.4v5.4c0,0.5,0,1,0.1,1.5
				c0,0.5,0.1,1,0.1,1.3H120.8z M120.5,112.4h-1c-0.4,0-0.8,0-1.2,0.1c-0.4,0.1-0.7,0.2-1,0.4c-0.3,0.2-0.5,0.5-0.7,0.8
				c-0.2,0.4-0.3,0.8-0.3,1.4c0,0.8,0.2,1.4,0.5,1.8c0.4,0.4,0.8,0.6,1.2,0.6c0.5,0,0.9-0.1,1.2-0.4c0.3-0.3,0.6-0.6,0.8-1.1
				c0.2-0.4,0.3-0.9,0.4-1.4c0.1-0.5,0.1-1,0.1-1.5V112.4z"/>
			<path id="XMLID_902_" class="st1" d="M131.4,119.5c-0.8,0-1.5-0.2-2.1-0.5c-0.6-0.3-1.1-0.8-1.5-1.5c-0.4-0.6-0.7-1.4-0.9-2.3
				c-0.2-0.9-0.3-1.8-0.3-2.9c0-1.1,0.1-2,0.3-2.9c0.2-0.9,0.5-1.6,0.9-2.3c0.4-0.6,0.9-1.1,1.5-1.5c0.6-0.3,1.3-0.5,2.1-0.5
				c0.7,0,1.3,0.1,1.8,0.4c0.5,0.2,0.9,0.5,1.2,0.8l-1.2,1.7c-0.2-0.3-0.5-0.5-0.8-0.6c-0.3-0.2-0.6-0.2-1-0.2
				c-0.4,0-0.8,0.1-1.1,0.4c-0.3,0.3-0.6,0.6-0.8,1.1c-0.2,0.5-0.4,1-0.5,1.6c-0.1,0.6-0.2,1.3-0.2,2.1c0,0.8,0,1.4,0.1,2.1
				c0.1,0.6,0.3,1.2,0.5,1.6c0.2,0.4,0.5,0.8,0.8,1c0.3,0.3,0.7,0.4,1.2,0.4c0.4,0,0.8-0.1,1.1-0.2c0.3-0.2,0.5-0.4,0.8-0.6l1,1.8
				C133.7,119.1,132.6,119.5,131.4,119.5z"/>
			<path id="XMLID_900_" class="st1" d="M141.6,119.3c-0.3,0.1-0.6,0.1-1,0.1c-1,0-1.8-0.3-2.2-1c-0.4-0.7-0.7-1.6-0.7-2.8v-8.2
				h-1.7v-1.8h1.7V102h2.2v3.6h2.4v1.8H140v7.7c0,0.8,0.1,1.3,0.3,1.7c0.2,0.3,0.6,0.5,1,0.5c0.2,0,0.3,0,0.5-0.1
				c0.2,0,0.3-0.1,0.5-0.1l0.1,1.8C142.2,119.1,141.9,119.2,141.6,119.3z"/>
			<path id="XMLID_897_" class="st1" d="M147.4,112.9c0,0.6,0.1,1.2,0.2,1.8c0.1,0.6,0.3,1,0.5,1.5c0.2,0.4,0.5,0.7,0.8,1
				c0.3,0.2,0.7,0.4,1.2,0.4c0.6,0,1.1-0.2,1.4-0.6c0.4-0.4,0.6-0.8,0.9-1.3l1.7,1c-0.4,0.9-0.9,1.6-1.5,2.1
				c-0.7,0.5-1.5,0.8-2.6,0.8c-1.5,0-2.7-0.6-3.6-1.9s-1.3-3-1.3-5.3c0-1.1,0.1-2,0.3-2.9c0.2-0.9,0.6-1.6,1-2.3
				c0.4-0.6,0.9-1.1,1.6-1.5c0.6-0.3,1.3-0.5,2-0.5c0.8,0,1.5,0.2,2.1,0.5c0.6,0.3,1,0.8,1.4,1.4c0.4,0.6,0.6,1.3,0.8,2.1
				s0.2,1.7,0.2,2.6v1.1H147.4z M152.2,111.1c0-1.2-0.2-2.1-0.5-2.8c-0.4-0.7-0.9-1.1-1.7-1.1c-0.5,0-0.9,0.1-1.2,0.4
				c-0.3,0.3-0.6,0.6-0.8,1c-0.2,0.4-0.3,0.8-0.4,1.3c-0.1,0.5-0.1,0.9-0.1,1.2H152.2z"/>
			<path id="XMLID_895_" class="st1" d="M162.1,105.9c0.5-0.5,1.1-0.8,1.8-0.8c0.1,0,0.2,0,0.3,0l-0.1,2.4c-0.1,0-0.1,0-0.2,0
				c-0.1,0-0.2,0-0.2,0c-0.4,0-0.8,0.1-1.1,0.4c-0.3,0.3-0.6,0.6-0.8,1.1c-0.2,0.4-0.4,1-0.5,1.5c-0.1,0.6-0.2,1.1-0.2,1.7v6.8h-2.3
				v-10c0-0.5,0-1.1,0-1.7c0-0.6,0-1.2-0.1-1.7h2.2c0.1,0.4,0.1,0.9,0.1,1.4c0,0.5,0,0.9,0,1.4h0.1
				C161.3,107.3,161.6,106.4,162.1,105.9z"/>
			<path id="XMLID_892_" class="st1" d="M170,101.6c0,0.4-0.1,0.8-0.4,1.1c-0.3,0.3-0.6,0.4-1,0.4c-0.4,0-0.7-0.1-1-0.4
				c-0.3-0.3-0.4-0.7-0.4-1.1c0-0.4,0.1-0.8,0.4-1.1c0.3-0.3,0.6-0.4,1-0.4c0.4,0,0.8,0.1,1,0.4C169.9,100.8,170,101.2,170,101.6z
				 M167.4,119v-13.4h2.3V119H167.4z"/>
			<path id="XMLID_890_" class="st1" d="M173.5,119v-2l5.4-9.5h-5v-2h7.4v1.9l-5.4,9.6h5.4v2H173.5z"/>
			<path id="XMLID_887_" class="st1" d="M191,119c-0.1-0.4-0.1-0.8-0.2-1.2c0-0.4-0.1-0.7-0.1-1h-0.1c-0.2,0.8-0.5,1.4-1.1,1.9
				c-0.5,0.5-1.2,0.7-2.1,0.7c-0.4,0-0.8-0.1-1.2-0.2c-0.4-0.1-0.7-0.4-1.1-0.7c-0.3-0.3-0.6-0.7-0.8-1.2c-0.2-0.5-0.3-1.1-0.3-1.8
				c0-1,0.2-1.8,0.5-2.4c0.3-0.6,0.8-1.1,1.3-1.4c0.5-0.3,1.1-0.6,1.8-0.7c0.6-0.1,1.3-0.2,1.8-0.2h0.9v-0.6c0-1.1-0.2-1.8-0.6-2.3
				c-0.4-0.5-0.9-0.7-1.6-0.7c-0.5,0-1,0.1-1.4,0.4c-0.4,0.3-0.8,0.6-1.1,1l-1.2-1.4c0.4-0.6,1-1.1,1.7-1.4c0.7-0.3,1.4-0.5,2.1-0.5
				c0.8,0,1.4,0.1,1.9,0.4c0.5,0.3,1,0.6,1.3,1.1c0.3,0.5,0.5,1.1,0.7,1.8c0.1,0.7,0.2,1.5,0.2,2.4v5.4c0,0.5,0,1,0.1,1.5
				c0,0.5,0.1,1,0.1,1.3H191z M190.7,112.4h-1c-0.4,0-0.8,0-1.2,0.1c-0.4,0.1-0.7,0.2-1,0.4c-0.3,0.2-0.5,0.5-0.7,0.8
				c-0.2,0.4-0.3,0.8-0.3,1.4c0,0.8,0.2,1.4,0.5,1.8c0.4,0.4,0.8,0.6,1.2,0.6s0.9-0.1,1.2-0.4c0.3-0.3,0.6-0.6,0.8-1.1
				c0.2-0.4,0.3-0.9,0.4-1.4c0.1-0.5,0.1-1,0.1-1.5V112.4z"/>
			<path id="XMLID_885_" class="st1" d="M201.5,119.3c-0.3,0.1-0.6,0.1-1,0.1c-1,0-1.8-0.3-2.2-1c-0.4-0.7-0.7-1.6-0.7-2.8v-8.2
				h-1.7v-1.8h1.7V102h2.2v3.6h2.4v1.8h-2.4v7.7c0,0.8,0.1,1.3,0.3,1.7c0.2,0.3,0.6,0.5,1,0.5c0.2,0,0.3,0,0.5-0.1
				c0.2,0,0.3-0.1,0.5-0.1l0.1,1.8C202.1,119.1,201.8,119.2,201.5,119.3z"/>
			<path id="XMLID_882_" class="st1" d="M208.2,101.6c0,0.4-0.1,0.8-0.4,1.1c-0.3,0.3-0.6,0.4-1,0.4c-0.4,0-0.7-0.1-1-0.4
				c-0.3-0.3-0.4-0.7-0.4-1.1c0-0.4,0.1-0.8,0.4-1.1c0.3-0.3,0.6-0.4,1-0.4c0.4,0,0.8,0.1,1,0.4
				C208.1,100.8,208.2,101.2,208.2,101.6z M205.7,119v-13.4h2.3V119H205.7z"/>
			<path id="XMLID_879_" class="st1" d="M222,112.3c0,1.1-0.1,2-0.3,2.9c-0.2,0.9-0.5,1.6-1,2.3c-0.4,0.6-0.9,1.1-1.5,1.5
				c-0.6,0.3-1.3,0.5-2.1,0.5c-0.7,0-1.4-0.2-2-0.5c-0.6-0.3-1.1-0.8-1.5-1.5c-0.4-0.6-0.7-1.4-1-2.3c-0.2-0.9-0.3-1.8-0.3-2.9
				c0-1.1,0.1-2.1,0.3-2.9c0.2-0.9,0.5-1.7,1-2.3c0.4-0.6,0.9-1.1,1.5-1.5s1.3-0.5,2.1-0.5c0.8,0,1.5,0.2,2.1,0.5
				c0.6,0.3,1.1,0.8,1.5,1.5c0.4,0.6,0.7,1.4,1,2.3C221.9,110.3,222,111.3,222,112.3z M219.7,112.3c0-0.7,0-1.4-0.1-2
				c-0.1-0.6-0.3-1.2-0.5-1.6c-0.2-0.5-0.5-0.8-0.8-1.1c-0.3-0.3-0.7-0.4-1.1-0.4c-0.4,0-0.8,0.1-1.1,0.4s-0.6,0.6-0.8,1.1
				c-0.2,0.5-0.4,1-0.5,1.6c-0.1,0.6-0.1,1.3-0.1,2c0,0.7,0,1.4,0.1,2c0.1,0.6,0.3,1.2,0.5,1.6c0.2,0.5,0.5,0.8,0.8,1.1
				c0.3,0.3,0.7,0.4,1.1,0.4c0.4,0,0.8-0.1,1.2-0.4c0.3-0.3,0.6-0.6,0.8-1.1c0.2-0.5,0.4-1,0.5-1.6
				C219.6,113.7,219.7,113.1,219.7,112.3z"/>
			<path id="XMLID_877_" class="st1" d="M233.1,119v-8.6c0-0.4,0-0.8-0.1-1.2c0-0.4-0.1-0.8-0.3-1.1c-0.1-0.3-0.3-0.6-0.6-0.8
				c-0.3-0.2-0.6-0.3-1-0.3c-0.4,0-0.7,0.1-1,0.3c-0.3,0.2-0.6,0.5-0.8,0.9c-0.2,0.4-0.4,0.8-0.5,1.3c-0.1,0.5-0.2,1.1-0.2,1.7v7.7
				h-2.3v-10c0-0.5,0-1.1,0-1.7c0-0.6,0-1.2-0.1-1.7h2.2c0.1,0.4,0.1,0.9,0.1,1.3s0,0.8,0,1h0.1c0.3-0.8,0.7-1.4,1.2-2
				c0.6-0.5,1.3-0.8,2.1-0.8c0.7,0,1.3,0.2,1.8,0.5c0.5,0.3,0.8,0.7,1,1.2c0.2,0.5,0.4,1.1,0.5,1.7c0.1,0.6,0.1,1.3,0.1,2v8.6H233.1
				z"/>
			<path id="XMLID_875_" class="st1" d="M241.2,122.5h-1.8l1.6-6.9h2.2L241.2,122.5z"/>
			<path id="XMLID_873_" class="st1" d="M266.1,119v-15.7H266l-4.2,15.7h-2.2l-4.2-15.7h-0.1V119h-2.2v-19h3.5l4.1,15.1h0.1l4-15.1
				h3.7v19H266.1z"/>
			<path id="XMLID_870_" class="st1" d="M275.2,112.9c0,0.6,0.1,1.2,0.2,1.8c0.1,0.6,0.3,1,0.5,1.5c0.2,0.4,0.5,0.7,0.8,1
				c0.3,0.2,0.7,0.4,1.2,0.4c0.6,0,1.1-0.2,1.4-0.6c0.4-0.4,0.6-0.8,0.9-1.3l1.7,1c-0.4,0.9-0.9,1.6-1.5,2.1s-1.5,0.8-2.6,0.8
				c-1.5,0-2.7-0.6-3.6-1.9s-1.3-3-1.3-5.3c0-1.1,0.1-2,0.3-2.9c0.2-0.9,0.6-1.6,1-2.3c0.4-0.6,0.9-1.1,1.6-1.5
				c0.6-0.3,1.3-0.5,2-0.5c0.8,0,1.5,0.2,2.1,0.5c0.6,0.3,1,0.8,1.4,1.4c0.4,0.6,0.6,1.3,0.8,2.1s0.2,1.7,0.2,2.6v1.1H275.2z
				 M280.1,111.1c0-1.2-0.2-2.1-0.5-2.8c-0.4-0.7-0.9-1.1-1.7-1.1c-0.5,0-0.9,0.1-1.2,0.4c-0.3,0.3-0.6,0.6-0.8,1
				c-0.2,0.4-0.3,0.8-0.4,1.3c-0.1,0.5-0.1,0.9-0.1,1.2H280.1z"/>
			<path id="XMLID_868_" class="st1" d="M290.6,119.3c-0.3,0.1-0.6,0.1-1,0.1c-1,0-1.8-0.3-2.2-1c-0.4-0.7-0.7-1.6-0.7-2.8v-8.2H285
				v-1.8h1.7V102h2.2v3.6h2.4v1.8h-2.4v7.7c0,0.8,0.1,1.3,0.3,1.7c0.2,0.3,0.6,0.5,1,0.5c0.2,0,0.3,0,0.5-0.1c0.2,0,0.3-0.1,0.5-0.1
				l0.1,1.8C291.2,119.1,290.9,119.2,290.6,119.3z"/>
			<path id="XMLID_866_" class="st1" d="M298.2,105.9c0.5-0.5,1.1-0.8,1.8-0.8c0.1,0,0.2,0,0.3,0l-0.1,2.4c-0.1,0-0.1,0-0.2,0
				c-0.1,0-0.2,0-0.2,0c-0.4,0-0.8,0.1-1.1,0.4c-0.3,0.3-0.6,0.6-0.8,1.1c-0.2,0.4-0.4,1-0.5,1.5c-0.1,0.6-0.2,1.1-0.2,1.7v6.8h-2.3
				v-10c0-0.5,0-1.1,0-1.7c0-0.6,0-1.2-0.1-1.7h2.2c0.1,0.4,0.1,0.9,0.1,1.4c0,0.5,0,0.9,0,1.4h0.1
				C297.3,107.3,297.7,106.4,298.2,105.9z"/>
			<path id="XMLID_863_" class="st1" d="M312.4,112.3c0,1.1-0.1,2-0.3,2.9c-0.2,0.9-0.5,1.6-1,2.3c-0.4,0.6-0.9,1.1-1.5,1.5
				c-0.6,0.3-1.3,0.5-2.1,0.5c-0.7,0-1.4-0.2-2-0.5c-0.6-0.3-1.1-0.8-1.5-1.5c-0.4-0.6-0.7-1.4-1-2.3c-0.2-0.9-0.3-1.8-0.3-2.9
				c0-1.1,0.1-2.1,0.3-2.9c0.2-0.9,0.5-1.7,1-2.3c0.4-0.6,0.9-1.1,1.5-1.5s1.3-0.5,2.1-0.5c0.8,0,1.5,0.2,2.1,0.5
				c0.6,0.3,1.1,0.8,1.5,1.5c0.4,0.6,0.7,1.4,1,2.3C312.3,110.3,312.4,111.3,312.4,112.3z M310,112.3c0-0.7,0-1.4-0.1-2
				c-0.1-0.6-0.3-1.2-0.5-1.6c-0.2-0.5-0.5-0.8-0.8-1.1c-0.3-0.3-0.7-0.4-1.1-0.4c-0.4,0-0.8,0.1-1.1,0.4s-0.6,0.6-0.8,1.1
				c-0.2,0.5-0.4,1-0.5,1.6c-0.1,0.6-0.1,1.3-0.1,2c0,0.7,0,1.4,0.1,2c0.1,0.6,0.3,1.2,0.5,1.6c0.2,0.5,0.5,0.8,0.8,1.1
				c0.3,0.3,0.7,0.4,1.1,0.4c0.4,0,0.8-0.1,1.2-0.4c0.3-0.3,0.6-0.6,0.8-1.1c0.2-0.5,0.4-1,0.5-1.6C310,113.7,310,113.1,310,112.3z"
				/>
			<path id="XMLID_861_" class="st1" d="M316.7,119V98.8h2.3V119H316.7z"/>
			<path id="XMLID_858_" class="st1" d="M333,112.3c0,1.1-0.1,2-0.3,2.9c-0.2,0.9-0.5,1.6-1,2.3c-0.4,0.6-0.9,1.1-1.5,1.5
				c-0.6,0.3-1.3,0.5-2.1,0.5c-0.7,0-1.4-0.2-2-0.5c-0.6-0.3-1.1-0.8-1.5-1.5c-0.4-0.6-0.7-1.4-1-2.3c-0.2-0.9-0.3-1.8-0.3-2.9
				c0-1.1,0.1-2.1,0.3-2.9c0.2-0.9,0.5-1.7,1-2.3c0.4-0.6,0.9-1.1,1.5-1.5s1.3-0.5,2.1-0.5c0.8,0,1.5,0.2,2.1,0.5
				c0.6,0.3,1.1,0.8,1.5,1.5c0.4,0.6,0.7,1.4,1,2.3C332.9,110.3,333,111.3,333,112.3z M330.7,112.3c0-0.7,0-1.4-0.1-2
				c-0.1-0.6-0.3-1.2-0.5-1.6c-0.2-0.5-0.5-0.8-0.8-1.1c-0.3-0.3-0.7-0.4-1.1-0.4c-0.4,0-0.8,0.1-1.1,0.4s-0.6,0.6-0.8,1.1
				c-0.2,0.5-0.4,1-0.5,1.6c-0.1,0.6-0.1,1.3-0.1,2c0,0.7,0,1.4,0.1,2c0.1,0.6,0.3,1.2,0.5,1.6c0.2,0.5,0.5,0.8,0.8,1.1
				c0.3,0.3,0.7,0.4,1.1,0.4c0.4,0,0.8-0.1,1.2-0.4c0.3-0.3,0.6-0.6,0.8-1.1c0.2-0.5,0.4-1,0.5-1.6
				C330.6,113.7,330.7,113.1,330.7,112.3z"/>
			<path id="XMLID_855_" class="st1" d="M344.1,105.6h2.2V119c0,0.9-0.1,1.8-0.3,2.5c-0.2,0.8-0.5,1.5-0.9,2c-0.4,0.6-0.9,1-1.6,1.4
				c-0.7,0.3-1.5,0.5-2.4,0.5c-0.9,0-1.8-0.2-2.6-0.6c-0.8-0.4-1.5-0.9-2-1.5l1.4-1.6c0.4,0.5,0.9,0.9,1.4,1.2
				c0.6,0.3,1.2,0.5,1.8,0.5c0.6,0,1-0.1,1.4-0.3c0.4-0.2,0.6-0.5,0.9-0.9c0.2-0.4,0.4-0.9,0.4-1.4c0.1-0.5,0.1-1.1,0.1-1.7v-2.1
				H344c-0.2,0.7-0.6,1.3-1,1.8c-0.5,0.5-1.2,0.7-2.1,0.7c-0.7,0-1.3-0.2-1.8-0.5c-0.5-0.4-1-0.9-1.4-1.5c-0.4-0.6-0.6-1.4-0.8-2.3
				c-0.2-0.9-0.3-1.9-0.3-2.9c0-1,0.1-2,0.3-2.9c0.2-0.9,0.5-1.6,0.8-2.3c0.4-0.6,0.8-1.1,1.4-1.5c0.5-0.3,1.2-0.5,1.8-0.5
				c0.8,0,1.5,0.2,2,0.7c0.5,0.4,0.9,1,1.1,1.7h0.1V105.6z M344.1,112.3c0-0.7-0.1-1.4-0.2-2c-0.1-0.6-0.3-1.2-0.5-1.6
				c-0.2-0.5-0.5-0.8-0.8-1.1c-0.3-0.3-0.7-0.4-1.1-0.4c-0.4,0-0.8,0.1-1.1,0.4c-0.3,0.3-0.6,0.6-0.8,1.1c-0.2,0.5-0.4,1-0.5,1.6
				c-0.1,0.6-0.1,1.3-0.1,2c0,0.7,0,1.4,0.1,2c0.1,0.6,0.3,1.2,0.5,1.6c0.2,0.5,0.5,0.8,0.8,1.1c0.3,0.3,0.7,0.4,1.1,0.4
				c0.4,0,0.8-0.1,1.1-0.4c0.3-0.3,0.6-0.6,0.8-1.1c0.2-0.5,0.4-1,0.5-1.6C344,113.7,344.1,113.1,344.1,112.3z"/>
			<path id="XMLID_853_" class="st1" d="M355.4,121.5c-0.2,0.6-0.3,1.2-0.5,1.6c-0.2,0.5-0.5,0.9-0.8,1.3c-0.3,0.3-0.6,0.6-1.1,0.8
				c-0.4,0.2-0.9,0.3-1.4,0.3c-0.3,0-0.6,0-0.9-0.1c-0.3,0-0.5-0.1-0.7-0.1l0.3-2.1c0.3,0.1,0.7,0.2,1.1,0.2c0.5,0,0.9-0.2,1.2-0.5
				c0.3-0.3,0.5-0.8,0.6-1.3l0.5-2.1l-4-13.9h2.4l2.7,10.8h0.1l2.4-10.8h2.3L355.4,121.5z"/>
			<path id="XMLID_851_" class="st1" d="M362.9,122.5H361l1.6-6.9h2.2L362.9,122.5z"/>
			<path id="XMLID_849_" class="st1" d="M79.1,145v-15.7H79L74.8,145h-2.2l-4.2-15.7h-0.1V145h-2.2v-19h3.5l4.1,15.1h0.1l4-15.1h3.7
				v19H79.1z"/>
			<path id="XMLID_846_" class="st1" d="M92.4,145c-0.1-0.4-0.1-0.8-0.2-1.2c0-0.4-0.1-0.7-0.1-1h-0.1c-0.2,0.8-0.5,1.4-1.1,1.9
				s-1.2,0.7-2.1,0.7c-0.4,0-0.8-0.1-1.2-0.2c-0.4-0.1-0.7-0.4-1.1-0.7c-0.3-0.3-0.6-0.7-0.8-1.2c-0.2-0.5-0.3-1.1-0.3-1.8
				c0-1,0.2-1.8,0.5-2.4s0.8-1.1,1.3-1.4c0.5-0.3,1.1-0.6,1.8-0.7c0.6-0.1,1.3-0.2,1.8-0.2H92V136c0-1.1-0.2-1.8-0.6-2.3
				c-0.4-0.5-0.9-0.7-1.6-0.7c-0.5,0-1,0.1-1.4,0.4c-0.4,0.3-0.8,0.6-1.1,1l-1.2-1.4c0.4-0.6,1-1.1,1.7-1.4c0.7-0.3,1.4-0.5,2.1-0.5
				c0.8,0,1.4,0.1,1.9,0.4c0.5,0.3,1,0.6,1.3,1.1c0.3,0.5,0.5,1.1,0.7,1.8c0.1,0.7,0.2,1.5,0.2,2.4v5.4c0,0.5,0,1,0.1,1.5
				c0,0.5,0.1,1,0.1,1.3H92.4z M92.1,138.4h-1c-0.4,0-0.8,0-1.2,0.1c-0.4,0.1-0.7,0.2-1,0.4c-0.3,0.2-0.5,0.5-0.7,0.8
				c-0.2,0.4-0.3,0.8-0.3,1.4c0,0.8,0.2,1.4,0.5,1.8c0.4,0.4,0.8,0.6,1.2,0.6c0.5,0,0.9-0.1,1.2-0.4c0.3-0.3,0.6-0.6,0.8-1.1
				c0.2-0.4,0.3-0.9,0.4-1.4c0.1-0.5,0.1-1,0.1-1.5V138.4z"/>
			<path id="XMLID_844_" class="st1" d="M105.7,145v-8.6c0-0.4,0-0.8-0.1-1.2c0-0.4-0.1-0.8-0.3-1.1c-0.1-0.3-0.3-0.6-0.6-0.8
				c-0.3-0.2-0.6-0.3-1-0.3c-0.4,0-0.7,0.1-1,0.3c-0.3,0.2-0.6,0.5-0.8,0.9c-0.2,0.4-0.4,0.8-0.5,1.3c-0.1,0.5-0.2,1.1-0.2,1.7v7.7
				h-2.3v-10c0-0.5,0-1.1,0-1.7c0-0.6,0-1.2-0.1-1.7h2.2c0.1,0.4,0.1,0.9,0.1,1.3c0,0.4,0,0.8,0,1h0.1c0.3-0.8,0.7-1.4,1.2-2
				c0.6-0.5,1.3-0.8,2.1-0.8c0.7,0,1.3,0.2,1.8,0.5c0.5,0.3,0.8,0.7,1,1.2c0.2,0.5,0.4,1.1,0.5,1.7s0.1,1.3,0.1,2v8.6H105.7z"/>
			<path id="XMLID_842_" class="st1" d="M115.2,131.6v8.6c0,0.4,0,0.8,0.1,1.2c0,0.4,0.1,0.8,0.3,1.1c0.1,0.3,0.3,0.6,0.6,0.8
				c0.3,0.2,0.6,0.3,1,0.3c0.4,0,0.7-0.1,1-0.3c0.3-0.2,0.6-0.5,0.8-0.9c0.2-0.4,0.4-0.8,0.5-1.3c0.1-0.5,0.2-1.1,0.2-1.7v-7.7h2.3
				v10c0,0.5,0,1.1,0,1.7c0,0.6,0,1.2,0.1,1.7h-2.2c-0.1-0.4-0.1-0.9-0.1-1.3c0-0.4,0-0.8,0-1h-0.1c-0.3,0.8-0.7,1.4-1.2,2
				s-1.3,0.8-2.1,0.8c-0.7,0-1.3-0.1-1.8-0.4c-0.4-0.3-0.8-0.7-1-1.2s-0.4-1.1-0.5-1.7c-0.1-0.6-0.1-1.3-0.1-2v-8.6H115.2z"/>
			<path id="XMLID_840_" class="st1" d="M132,126.3c-0.2-0.1-0.5-0.1-0.8-0.1c-0.4,0-0.7,0.1-0.9,0.3c-0.2,0.2-0.4,0.4-0.5,0.7
				c-0.1,0.3-0.2,0.6-0.3,0.9c-0.1,0.3-0.1,0.7-0.1,1.1v2.4h2.2v1.8h-2.2V145h-2.3v-11.6h-1.7v-1.8h1.7v-2.5c0-0.7,0.1-1.3,0.2-1.9
				c0.1-0.6,0.4-1.1,0.7-1.5c0.3-0.4,0.7-0.8,1.2-1c0.5-0.2,1-0.4,1.7-0.4c0.2,0,0.4,0,0.6,0c0.2,0,0.4,0.1,0.6,0.1L132,126.3z"/>
			<path id="XMLID_837_" class="st1" d="M140.6,145c-0.1-0.4-0.1-0.8-0.2-1.2c0-0.4-0.1-0.7-0.1-1h-0.1c-0.2,0.8-0.5,1.4-1.1,1.9
				c-0.5,0.5-1.2,0.7-2.1,0.7c-0.4,0-0.8-0.1-1.2-0.2c-0.4-0.1-0.7-0.4-1.1-0.7c-0.3-0.3-0.6-0.7-0.8-1.2c-0.2-0.5-0.3-1.1-0.3-1.8
				c0-1,0.2-1.8,0.5-2.4c0.3-0.6,0.8-1.1,1.3-1.4c0.5-0.3,1.1-0.6,1.8-0.7c0.6-0.1,1.3-0.2,1.8-0.2h0.9V136c0-1.1-0.2-1.8-0.6-2.3
				c-0.4-0.5-0.9-0.7-1.6-0.7c-0.5,0-1,0.1-1.4,0.4c-0.4,0.3-0.8,0.6-1.1,1l-1.2-1.4c0.4-0.6,1-1.1,1.7-1.4c0.7-0.3,1.4-0.5,2.1-0.5
				c0.8,0,1.4,0.1,1.9,0.4c0.5,0.3,1,0.6,1.3,1.1c0.3,0.5,0.5,1.1,0.7,1.8c0.1,0.7,0.2,1.5,0.2,2.4v5.4c0,0.5,0,1,0.1,1.5
				c0,0.5,0.1,1,0.1,1.3H140.6z M140.3,138.4h-1c-0.4,0-0.8,0-1.2,0.1c-0.4,0.1-0.7,0.2-1,0.4c-0.3,0.2-0.5,0.5-0.7,0.8
				c-0.2,0.4-0.3,0.8-0.3,1.4c0,0.8,0.2,1.4,0.5,1.8c0.4,0.4,0.8,0.6,1.2,0.6c0.5,0,0.9-0.1,1.2-0.4c0.3-0.3,0.6-0.6,0.8-1.1
				c0.2-0.4,0.3-0.9,0.4-1.4c0.1-0.5,0.1-1,0.1-1.5V138.4z"/>
			<path id="XMLID_835_" class="st1" d="M151.2,145.5c-0.8,0-1.5-0.2-2.1-0.5c-0.6-0.3-1.1-0.8-1.5-1.5c-0.4-0.6-0.7-1.4-0.9-2.3
				c-0.2-0.9-0.3-1.8-0.3-2.9c0-1.1,0.1-2,0.3-2.9c0.2-0.9,0.5-1.6,0.9-2.3c0.4-0.6,0.9-1.1,1.5-1.5c0.6-0.3,1.3-0.5,2.1-0.5
				c0.7,0,1.3,0.1,1.8,0.4c0.5,0.2,0.9,0.5,1.2,0.8L153,134c-0.2-0.3-0.5-0.5-0.8-0.6c-0.3-0.2-0.6-0.2-1-0.2
				c-0.4,0-0.8,0.1-1.1,0.4c-0.3,0.3-0.6,0.6-0.8,1.1c-0.2,0.5-0.4,1-0.5,1.6c-0.1,0.6-0.2,1.3-0.2,2.1c0,0.8,0,1.4,0.1,2.1
				c0.1,0.6,0.3,1.2,0.5,1.6c0.2,0.4,0.5,0.8,0.8,1c0.3,0.3,0.7,0.4,1.2,0.4c0.4,0,0.8-0.1,1.1-0.2c0.3-0.2,0.5-0.4,0.8-0.6l1,1.8
				C153.5,145,152.5,145.5,151.2,145.5z"/>
			<path id="XMLID_833_" class="st1" d="M161.4,145.2c-0.3,0.1-0.6,0.1-1,0.1c-1,0-1.8-0.3-2.2-1s-0.7-1.6-0.7-2.8v-8.2h-1.7v-1.8
				h1.7V128h2.2v3.6h2.4v1.8h-2.4v7.7c0,0.8,0.1,1.3,0.3,1.7c0.2,0.3,0.6,0.5,1,0.5c0.2,0,0.3,0,0.5-0.1c0.2,0,0.3-0.1,0.5-0.1
				l0.1,1.8C162,145.1,161.8,145.2,161.4,145.2z"/>
			<path id="XMLID_831_" class="st1" d="M167.8,131.6v8.6c0,0.4,0,0.8,0.1,1.2c0,0.4,0.1,0.8,0.3,1.1c0.1,0.3,0.3,0.6,0.6,0.8
				c0.3,0.2,0.6,0.3,1,0.3c0.4,0,0.7-0.1,1-0.3c0.3-0.2,0.6-0.5,0.8-0.9c0.2-0.4,0.4-0.8,0.5-1.3c0.1-0.5,0.2-1.1,0.2-1.7v-7.7h2.3
				v10c0,0.5,0,1.1,0,1.7c0,0.6,0,1.2,0.1,1.7h-2.2c-0.1-0.4-0.1-0.9-0.1-1.3c0-0.4,0-0.8,0-1h-0.1c-0.3,0.8-0.7,1.4-1.2,2
				s-1.3,0.8-2.1,0.8c-0.7,0-1.3-0.1-1.8-0.4c-0.4-0.3-0.8-0.7-1-1.2s-0.4-1.1-0.5-1.7c-0.1-0.6-0.1-1.3-0.1-2v-8.6H167.8z"/>
			<path id="XMLID_829_" class="st1" d="M183.1,131.9c0.5-0.5,1.1-0.8,1.8-0.8c0.1,0,0.2,0,0.3,0l-0.1,2.4c-0.1,0-0.1,0-0.2,0
				c-0.1,0-0.2,0-0.2,0c-0.4,0-0.8,0.1-1.1,0.4c-0.3,0.3-0.6,0.6-0.8,1.1c-0.2,0.4-0.4,1-0.5,1.5c-0.1,0.6-0.2,1.1-0.2,1.7v6.8h-2.3
				v-10c0-0.5,0-1.1,0-1.7c0-0.6,0-1.2-0.1-1.7h2.2c0.1,0.4,0.1,0.9,0.1,1.4c0,0.5,0,0.9,0,1.4h0.1
				C182.3,133.2,182.6,132.4,183.1,131.9z"/>
			<path id="XMLID_826_" class="st1" d="M191,127.6c0,0.4-0.1,0.8-0.4,1.1c-0.3,0.3-0.6,0.4-1,0.4c-0.4,0-0.7-0.1-1-0.4
				c-0.3-0.3-0.4-0.7-0.4-1.1c0-0.4,0.1-0.8,0.4-1.1c0.3-0.3,0.6-0.4,1-0.4c0.4,0,0.8,0.1,1,0.4C190.9,126.8,191,127.1,191,127.6z
				 M188.5,145v-13.4h2.3V145H188.5z"/>
			<path id="XMLID_824_" class="st1" d="M202.6,145v-8.6c0-0.4,0-0.8-0.1-1.2c0-0.4-0.1-0.8-0.3-1.1c-0.1-0.3-0.3-0.6-0.6-0.8
				c-0.3-0.2-0.6-0.3-1-0.3c-0.4,0-0.7,0.1-1,0.3c-0.3,0.2-0.6,0.5-0.8,0.9c-0.2,0.4-0.4,0.8-0.5,1.3c-0.1,0.5-0.2,1.1-0.2,1.7v7.7
				h-2.3v-10c0-0.5,0-1.1,0-1.7c0-0.6,0-1.2-0.1-1.7h2.2c0.1,0.4,0.1,0.9,0.1,1.3c0,0.4,0,0.8,0,1h0.1c0.3-0.8,0.7-1.4,1.2-2
				c0.6-0.5,1.3-0.8,2.1-0.8c0.7,0,1.3,0.2,1.8,0.5c0.5,0.3,0.8,0.7,1,1.2c0.2,0.5,0.4,1.1,0.5,1.7c0.1,0.6,0.1,1.3,0.1,2v8.6H202.6
				z"/>
			<path id="XMLID_821_" class="st1" d="M216.6,131.5h2.2V145c0,0.9-0.1,1.8-0.3,2.5c-0.2,0.8-0.5,1.5-0.9,2c-0.4,0.6-0.9,1-1.6,1.4
				c-0.7,0.3-1.5,0.5-2.4,0.5c-0.9,0-1.8-0.2-2.6-0.6c-0.8-0.4-1.5-0.9-2-1.5l1.4-1.6c0.4,0.5,0.9,0.9,1.4,1.2
				c0.6,0.3,1.2,0.5,1.8,0.5c0.6,0,1-0.1,1.4-0.3c0.4-0.2,0.6-0.5,0.9-0.9c0.2-0.4,0.4-0.9,0.4-1.4c0.1-0.5,0.1-1.1,0.1-1.7v-2.1
				h-0.1c-0.2,0.7-0.6,1.3-1,1.8c-0.5,0.5-1.2,0.7-2.1,0.7c-0.7,0-1.3-0.2-1.8-0.5c-0.5-0.4-1-0.9-1.4-1.5c-0.4-0.6-0.6-1.4-0.8-2.3
				c-0.2-0.9-0.3-1.9-0.3-2.9c0-1,0.1-2,0.3-2.9c0.2-0.9,0.5-1.6,0.8-2.3c0.4-0.6,0.8-1.1,1.4-1.5c0.5-0.3,1.2-0.5,1.8-0.5
				c0.8,0,1.5,0.2,2,0.7c0.5,0.4,0.9,1,1.1,1.7h0.1V131.5z M216.6,138.3c0-0.7-0.1-1.4-0.2-2c-0.1-0.6-0.3-1.2-0.5-1.6
				c-0.2-0.5-0.5-0.8-0.8-1.1c-0.3-0.3-0.7-0.4-1.1-0.4c-0.4,0-0.8,0.1-1.1,0.4c-0.3,0.3-0.6,0.6-0.8,1.1c-0.2,0.5-0.4,1-0.5,1.6
				c-0.1,0.6-0.1,1.3-0.1,2c0,0.7,0,1.4,0.1,2c0.1,0.6,0.3,1.2,0.5,1.6c0.2,0.5,0.5,0.8,0.8,1.1c0.3,0.3,0.7,0.4,1.1,0.4
				c0.4,0,0.8-0.1,1.1-0.4c0.3-0.3,0.6-0.6,0.8-1.1c0.2-0.5,0.4-1,0.5-1.6C216.5,139.7,216.6,139,216.6,138.3z"/>
			<path id="XMLID_817_" class="st1" d="M239.5,145l-1.6-2.3c-0.4,0.8-0.9,1.4-1.5,1.9c-0.7,0.5-1.5,0.8-2.6,0.8
				c-1.4,0-2.5-0.5-3.4-1.4c-0.8-1-1.3-2.3-1.3-4c0-1.3,0.3-2.5,0.9-3.3c0.6-0.9,1.4-1.6,2.3-2.2c-0.6-0.8-1-1.6-1.2-2.2
				c-0.2-0.7-0.3-1.4-0.3-2.1c0-0.7,0.1-1.4,0.3-1.9c0.2-0.6,0.5-1,0.9-1.4c0.4-0.4,0.8-0.7,1.3-0.9c0.5-0.2,1-0.3,1.6-0.3
				c1.1,0,2.1,0.4,2.8,1.1c0.7,0.8,1.1,1.8,1.1,3.1c0,0.6-0.1,1.2-0.3,1.7s-0.5,1-0.8,1.4c-0.3,0.4-0.7,0.8-1.2,1.1
				c-0.4,0.3-0.9,0.7-1.4,1l2.7,3.9l1.6-4.1h2.4l-2.6,5.8l3.1,4.4H239.5z M233.5,136c-0.3,0.2-0.5,0.4-0.8,0.6
				c-0.2,0.2-0.5,0.5-0.7,0.8c-0.2,0.3-0.4,0.6-0.5,1c-0.1,0.4-0.2,0.8-0.2,1.3c0,1.1,0.2,2,0.7,2.6c0.5,0.6,1.1,1,1.9,1
				c0.3,0,0.7-0.1,0.9-0.2c0.3-0.1,0.5-0.3,0.8-0.5c0.2-0.2,0.4-0.5,0.6-0.8c0.2-0.3,0.3-0.6,0.4-0.9L233.5,136z M236.7,129.9
				c0-0.8-0.1-1.4-0.4-1.8c-0.3-0.5-0.7-0.7-1.3-0.7c-0.6,0-1,0.3-1.4,0.8c-0.3,0.5-0.5,1.1-0.5,1.9c0,0.6,0.1,1.2,0.3,1.7
				c0.2,0.5,0.5,1.1,0.9,1.7c0.7-0.4,1.2-0.9,1.7-1.5C236.5,131.5,236.7,130.8,236.7,129.9z"/>
			<path id="XMLID_815_" class="st1" d="M260.4,140c0,0.9-0.1,1.6-0.4,2.3c-0.3,0.7-0.6,1.3-1.1,1.7c-0.5,0.5-1,0.8-1.6,1.1
				c-0.6,0.2-1.3,0.4-2,0.4c-1,0-1.9-0.2-2.7-0.6c-0.9-0.4-1.6-0.9-2.1-1.6l1.4-1.7c0.4,0.5,0.9,1,1.5,1.3c0.6,0.3,1.2,0.5,1.9,0.5
				c0.8,0,1.5-0.3,2-0.8c0.5-0.5,0.8-1.3,0.8-2.3c0-0.5-0.1-0.9-0.2-1.3c-0.2-0.4-0.4-0.7-0.7-1c-0.3-0.3-0.6-0.6-1-0.8
				c-0.4-0.2-0.8-0.5-1.2-0.7c-0.5-0.2-1-0.5-1.5-0.8c-0.5-0.3-0.9-0.7-1.2-1.1c-0.4-0.4-0.6-0.9-0.8-1.5c-0.2-0.6-0.3-1.2-0.3-2
				c0-0.9,0.1-1.7,0.4-2.4c0.3-0.7,0.7-1.2,1.1-1.7c0.5-0.4,1-0.8,1.6-1c0.6-0.2,1.2-0.3,1.8-0.3c0.9,0,1.7,0.2,2.5,0.5
				c0.7,0.3,1.3,0.8,1.8,1.4l-1.4,1.7c-0.7-0.9-1.6-1.3-2.7-1.3c-0.3,0-0.7,0.1-1,0.2c-0.3,0.1-0.6,0.3-0.9,0.6s-0.5,0.6-0.6,1
				c-0.2,0.4-0.2,0.9-0.2,1.4c0,0.5,0.1,0.9,0.2,1.2c0.2,0.3,0.4,0.7,0.6,0.9c0.3,0.3,0.6,0.5,0.9,0.8c0.3,0.2,0.7,0.4,1.1,0.6
				c0.5,0.3,1,0.5,1.5,0.8c0.5,0.3,0.9,0.7,1.3,1.1c0.4,0.4,0.7,0.9,1,1.5C260.3,138.5,260.4,139.2,260.4,140z"/>
			<path id="XMLID_812_" class="st1" d="M270.4,145c-0.1-0.4-0.1-0.8-0.2-1.2c0-0.4-0.1-0.7-0.1-1h-0.1c-0.2,0.8-0.5,1.4-1.1,1.9
				s-1.2,0.7-2.1,0.7c-0.4,0-0.8-0.1-1.2-0.2c-0.4-0.1-0.7-0.4-1.1-0.7c-0.3-0.3-0.6-0.7-0.8-1.2c-0.2-0.5-0.3-1.1-0.3-1.8
				c0-1,0.2-1.8,0.5-2.4s0.8-1.1,1.3-1.4c0.5-0.3,1.1-0.6,1.8-0.7c0.6-0.1,1.3-0.2,1.8-0.2h0.9V136c0-1.1-0.2-1.8-0.6-2.3
				c-0.4-0.5-0.9-0.7-1.6-0.7c-0.5,0-1,0.1-1.4,0.4c-0.4,0.3-0.8,0.6-1.1,1l-1.2-1.4c0.4-0.6,1-1.1,1.7-1.4c0.7-0.3,1.4-0.5,2.1-0.5
				c0.8,0,1.4,0.1,1.9,0.4c0.5,0.3,1,0.6,1.3,1.1c0.3,0.5,0.5,1.1,0.7,1.8c0.1,0.7,0.2,1.5,0.2,2.4v5.4c0,0.5,0,1,0.1,1.5
				c0,0.5,0.1,1,0.1,1.3H270.4z M270.1,138.4h-1c-0.4,0-0.8,0-1.2,0.1c-0.4,0.1-0.7,0.2-1,0.4c-0.3,0.2-0.5,0.5-0.7,0.8
				c-0.2,0.4-0.3,0.8-0.3,1.4c0,0.8,0.2,1.4,0.5,1.8c0.4,0.4,0.8,0.6,1.2,0.6c0.5,0,0.9-0.1,1.2-0.4c0.3-0.3,0.6-0.6,0.8-1.1
				c0.2-0.4,0.3-0.9,0.4-1.4c0.1-0.5,0.1-1,0.1-1.5V138.4z"/>
			<path id="XMLID_810_" class="st1" d="M281.8,126.3c-0.2-0.1-0.5-0.1-0.8-0.1c-0.4,0-0.7,0.1-0.9,0.3c-0.2,0.2-0.4,0.4-0.5,0.7
				s-0.2,0.6-0.3,0.9c-0.1,0.3-0.1,0.7-0.1,1.1v2.4h2.2v1.8h-2.2V145H277v-11.6h-1.7v-1.8h1.7v-2.5c0-0.7,0.1-1.3,0.2-1.9
				c0.1-0.6,0.4-1.1,0.7-1.5c0.3-0.4,0.7-0.8,1.2-1s1-0.4,1.7-0.4c0.2,0,0.4,0,0.6,0c0.2,0,0.4,0.1,0.6,0.1L281.8,126.3z"/>
			<path id="XMLID_807_" class="st1" d="M286.3,138.9c0,0.6,0.1,1.2,0.2,1.8c0.1,0.6,0.3,1,0.5,1.5c0.2,0.4,0.5,0.7,0.8,1
				c0.3,0.2,0.7,0.4,1.2,0.4c0.6,0,1.1-0.2,1.4-0.6c0.4-0.4,0.6-0.8,0.9-1.3l1.7,1c-0.4,0.9-0.9,1.6-1.5,2.1
				c-0.7,0.5-1.5,0.8-2.6,0.8c-1.5,0-2.7-0.6-3.6-1.9s-1.3-3-1.3-5.3c0-1.1,0.1-2,0.3-2.9c0.2-0.9,0.6-1.6,1-2.3
				c0.4-0.6,0.9-1.1,1.6-1.5c0.6-0.3,1.3-0.5,2-0.5c0.8,0,1.5,0.2,2.1,0.5c0.6,0.3,1,0.8,1.4,1.4c0.4,0.6,0.6,1.3,0.8,2.1
				c0.2,0.8,0.2,1.7,0.2,2.6v1.1H286.3z M291.1,137c0-1.2-0.2-2.1-0.5-2.8s-0.9-1.1-1.7-1.1c-0.5,0-0.9,0.1-1.2,0.4
				c-0.3,0.3-0.6,0.6-0.8,1c-0.2,0.4-0.3,0.8-0.4,1.3c-0.1,0.5-0.1,0.9-0.1,1.2H291.1z"/>
			<path id="XMLID_805_" class="st1" d="M301.6,145.2c-0.3,0.1-0.6,0.1-1,0.1c-1,0-1.8-0.3-2.2-1c-0.4-0.7-0.7-1.6-0.7-2.8v-8.2
				h-1.7v-1.8h1.7V128h2.2v3.6h2.4v1.8H300v7.7c0,0.8,0.1,1.3,0.3,1.7s0.6,0.5,1,0.5c0.2,0,0.3,0,0.5-0.1c0.2,0,0.3-0.1,0.5-0.1
				l0.1,1.8C302.2,145.1,301.9,145.2,301.6,145.2z"/>
			<path id="XMLID_803_" class="st1" d="M309.9,147.4c-0.2,0.6-0.3,1.2-0.5,1.6c-0.2,0.5-0.5,0.9-0.8,1.3c-0.3,0.3-0.6,0.6-1.1,0.8
				c-0.4,0.2-0.9,0.3-1.4,0.3c-0.3,0-0.6,0-0.9-0.1c-0.3,0-0.5-0.1-0.7-0.1l0.3-2.1c0.3,0.1,0.7,0.2,1.1,0.2c0.5,0,0.9-0.2,1.2-0.5
				c0.3-0.3,0.5-0.8,0.6-1.3l0.5-2.1l-4-13.9h2.4l2.7,10.8h0.1l2.4-10.8h2.3L309.9,147.4z"/>
		</g>
	</g>
	<polygon id="XMLID_1957_" class="st2" points="92.5,70.8 98.9,70.8 95.7,63.2 	"/>
	<path id="XMLID_1955_" class="st2" d="M400.9,62.8c-0.6-0.6-1.4-1.1-2.3-1.5c-0.9-0.4-1.8-0.6-2.8-0.6c-1,0-1.9,0.2-2.7,0.6
		c-0.8,0.4-1.5,0.9-2.1,1.6c-0.6,0.7-1,1.4-1.3,2.3c-0.3,0.9-0.5,1.8-0.5,2.8c0,1,0.2,2,0.5,2.9c0.3,0.9,0.8,1.6,1.3,2.3
		c0.6,0.6,1.3,1.2,2.1,1.5c0.8,0.4,1.7,0.6,2.7,0.6c1,0,1.9-0.2,2.8-0.5c0.9-0.3,1.6-0.8,2.3-1.4c0.6-0.6,1.2-1.3,1.6-2.2
		c0.4-0.8,0.6-1.7,0.7-2.7v-0.8c0-0.9-0.3-1.8-0.7-2.7C402,64.2,401.5,63.5,400.9,62.8z"/>
	<polygon id="XMLID_1952_" class="st1" points="80.2,46.5 73,46.5 73,66.5 51.2,45.8 51.2,82.8 58.5,82.8 58.5,62.7 79.3,82.5 
		80.2,80.4 	"/>
	<polygon id="XMLID_1951_" class="st1" points="80.2,83.4 80.2,82.7 79.4,82.7 	"/>
	<path id="XMLID_1944_" class="st1" d="M95.7,45.8L80.2,80.4v2.3H87c0.8-1.8,1.7-3.7,2.5-5.5l0,0h12.4c0.8,1.8,1.6,3.7,2.4,5.5h6.9
		v-2.2L95.7,45.8z M92.5,70.8l3.2-7.5l3.2,7.5H92.5z"/>
	<polygon id="XMLID_1939_" class="st1" points="79.2,82.7 79.4,82.7 79.3,82.5 	"/>
	<polygon id="XMLID_1879_" class="st1" points="79.3,82.5 79.4,82.7 80.2,82.7 80.2,80.4 	"/>
	<polygon id="XMLID_1874_" class="st1" points="132.9,66.5 111.2,45.8 111.2,80.5 112.2,82.7 111.2,82.7 111.2,82.8 118.4,82.8 
		118.4,62.7 140.2,83.4 140.2,46.5 132.9,46.5 	"/>
	<polygon id="XMLID_1873_" class="st1" points="111.2,80.5 111.2,82.7 112.2,82.7 	"/>
	<path id="XMLID_1868_" class="st1" d="M166.6,72.4l0-0.3c-0.1,0.1-0.1,0.2-0.2,0.3c-2.2,2.1-4.7,3.2-7.8,3.2c-3,0-5.6-1.1-7.8-3.2
		c-2.1-2.1-3.2-4.7-3.2-7.8c0-3,1.1-5.6,3.2-7.8c1.1-1.1,2.2-1.9,3.5-2.4c-2.2-1.7-4-3.6-5.2-5.5c-1.2,0.8-2.4,1.7-3.5,2.8
		c-3.6,3.6-5.4,7.9-5.4,13s1.8,9.4,5.4,12.9c3.6,3.6,7.9,5.4,12.9,5.4c5,0,9.4-1.8,13-5.4c2.7-2.7,4.4-5.8,5.1-9.3
		C167.6,70.4,166.6,72.4,166.6,72.4z"/>
	<path id="XMLID_1867_" class="st0" d="M179,81c0,1.2,0.6,1.8,1.8,1.8h5.2c0.6,0,1.1-0.2,1.4-0.4c0.3-0.3,0.5-0.7,0.5-1.3l0-14.6
		c-3.5,0.4-6.4,0.9-8.9,1.4L179,81z"/>
	<path id="XMLID_1866_" class="st0" d="M187.7,61.3c1.7,0.1,3.5,0.3,5.5,0.4c0.1-0.3,0.2-0.6,0.2-1.1v-4.4c0-0.6-0.2-1-0.5-1.3
		c0,0,0,0,0,0c0,0.5-0.1,1.1-0.3,1.6C191.9,58.5,190.2,60.2,187.7,61.3z"/>
	<path id="XMLID_1865_" class="st0" d="M192.7,68.1c0,2.2,0.4,4.2,1.2,6c0.8,1.8,2,3.4,3.4,4.8c1.4,1.4,3.1,2.4,4.9,3.2
		c1.9,0.8,3.9,1.2,6,1.2c1.9,0,3.7-0.3,5.4-1c1.7-0.7,3.2-1.7,4.6-2.9c0.2-0.2,0.4-0.4,0.6-0.6c0.2-0.2,0.3-0.5,0.3-0.8
		c0-0.2,0-0.3-0.1-0.5c0-0.2-0.2-0.3-0.3-0.5l-2.4-2.8c-0.3-0.3-0.5-0.5-0.7-0.6c-0.2-0.1-0.4-0.2-0.6-0.2s-0.4,0.1-0.6,0.2
		c-0.2,0.1-0.4,0.2-0.6,0.4c-0.3,0.3-0.6,0.5-1.1,0.8c-0.5,0.3-1,0.5-1.5,0.7s-1.1,0.3-1.7,0.5c-0.6,0.1-1.2,0.2-1.7,0.2
		c-0.6,0-1.3-0.1-2-0.3c-0.7-0.2-1.3-0.4-2-0.8c-0.6-0.4-1.2-0.9-1.6-1.6c-0.5-0.7-0.8-1.5-0.9-2.5h16.6c1,0,1.7-0.1,2.2-0.2
		s0.9-0.3,1.1-0.6c0.2-0.3,0.3-0.7,0.4-1.2s0-1.2,0-2c0-0.9-0.1-1.8-0.3-2.7c-11.8,0.3-21,0.9-28.3,1.6
		C192.7,66.6,192.7,67.3,192.7,68.1z"/>
	<path id="XMLID_1864_" class="st0" d="M203.7,61.4c0.5-0.4,1-0.7,1.6-1c0.6-0.2,1.1-0.4,1.7-0.4c0.8,0,1.6,0.1,2.2,0.3
		c0.6,0.2,1.2,0.5,1.7,0.9c0.5,0.4,0.9,0.8,1.2,1.3c2.7,0.1,5.6,0.1,8.6,0.2c-0.3-1-0.8-1.9-1.3-2.8c-0.6-1-1.4-2-2.3-2.8
		c-0.9-0.9-1.8-1.6-2.9-2.2c-1.1-0.6-2.2-1.1-3.4-1.4c-1.2-0.3-2.4-0.5-3.7-0.5c-1.4,0-2.7,0.2-4,0.6c-1.3,0.4-2.4,0.9-3.5,1.5
		c-1.1,0.7-2,1.5-2.9,2.4c-0.9,0.9-1.6,1.9-2.2,3.1c-0.2,0.4-0.4,0.8-0.6,1.2c2.7,0.2,5.6,0.3,8.8,0.5
		C203.1,61.9,203.4,61.6,203.7,61.4z"/>
	<path id="XMLID_1861_" class="st0" d="M234.2,61.4c0.8-0.4,1.7-0.6,2.7-0.6c0.9,0,1.7,0.1,2.5,0.4c0.8,0.3,1.5,0.6,2.2,1.1
		c0.2,0.2,0.5,0.3,0.7,0.4c0.2,0.1,0.4,0.1,0.5,0.1c0.6,0,1.1-0.4,1.6-1.1l2.1-3.5c0.2-0.3,0.3-0.6,0.3-0.9c0-0.4-0.1-0.7-0.3-1
		c-0.2-0.3-0.5-0.5-0.8-0.7l0.1,0.1c-1.2-0.9-2.6-1.5-4-2c-1.4-0.4-3-0.7-4.6-0.7c-1.4,0-2.7,0.2-4,0.5c-1.3,0.4-2.5,0.9-3.6,1.5
		c-1.1,0.6-2.1,1.4-3,2.3c-0.9,0.9-1.7,1.9-2.4,3c-0.4,0.7-0.8,1.5-1.1,2.3c3,0,6.1,0.1,9.4,0.1C232.8,62.3,233.4,61.8,234.2,61.4z"
		/>
	<path id="XMLID_1860_" class="st0" d="M221.9,68.2c0,1.4,0.2,2.8,0.5,4.1c0.4,1.3,0.9,2.5,1.5,3.6c0.6,1.1,1.4,2.1,2.4,3.1
		c0.9,0.9,1.9,1.7,3,2.4c1.1,0.7,2.3,1.2,3.6,1.5c1.3,0.4,2.6,0.5,4,0.5c1.7,0,3.3-0.3,4.8-0.8c1.5-0.5,2.9-1.2,4.1-2.1
		c0.3-0.2,0.5-0.4,0.7-0.6c0.2-0.2,0.3-0.5,0.3-0.9c0-0.1,0-0.2-0.1-0.4c-0.1-0.2-0.1-0.3-0.2-0.4l-2.6-3.9
		c-0.2-0.4-0.5-0.6-0.7-0.7c-0.2-0.1-0.5-0.2-0.7-0.2c-0.1,0-0.3,0-0.4,0.1c-0.2,0-0.4,0.1-0.6,0.3c-0.7,0.5-1.4,0.9-2.2,1.2
		c-0.8,0.3-1.6,0.5-2.5,0.5c-1,0-1.9-0.2-2.7-0.6c-0.8-0.4-1.5-0.9-2.1-1.5c-0.6-0.6-1-1.4-1.3-2.3c-0.3-0.9-0.5-1.8-0.5-2.8
		c0-1,0.2-1.9,0.5-2.8c0.2-0.5,0.4-0.9,0.6-1.3c-3.1,0-6.1,0.1-9,0.2C222.1,65.4,221.9,66.8,221.9,68.2z"/>
	<path id="XMLID_1859_" class="st0" d="M266.4,65.9v15.2c0,0.6,0.1,1.1,0.4,1.3c0.2,0.2,0.7,0.3,1.4,0.3h5.3c0.6,0,1-0.2,1.2-0.4
		c0.3-0.3,0.4-0.7,0.4-1.3V65.9c0-0.5,0-1-0.1-1.6c-2.9-0.1-5.8-0.1-8.9-0.2C266.3,64.7,266.4,65.3,266.4,65.9z"/>
	<path id="XMLID_1858_" class="st0" d="M248.2,81c0,0.5,0.1,1,0.4,1.3c0.3,0.3,0.8,0.5,1.4,0.5h5.2c0.2,0,0.4,0,0.6-0.1
		s0.4-0.1,0.6-0.3c0.2-0.1,0.3-0.3,0.4-0.6c0.1-0.3,0.1-0.5,0.1-0.8V65.9c0-0.7,0.2-1.3,0.5-1.8c-3,0-6.1-0.1-9.3-0.1V81z"/>
	<path id="XMLID_1857_" class="st0" d="M258.6,62.5c0.4-0.4,0.9-0.7,1.4-0.9s1.1-0.3,1.6-0.3c0.6,0,1.3,0.1,1.8,0.4
		c0.6,0.2,1.1,0.6,1.5,1c0.1,0.1,0.2,0.2,0.3,0.3c3.3,0,6.4,0,9.5,0c-0.1-0.7-0.3-1.3-0.5-1.9c-0.5-1.6-1.2-2.9-2.2-4.1
		s-2.1-2.1-3.5-2.8c-1.4-0.7-2.9-1-4.7-1c-0.9,0-1.7,0.1-2.4,0.3c-0.7,0.2-1.4,0.5-1.9,0.8c-0.6,0.3-1,0.7-1.5,1.1
		c-0.4,0.4-0.8,0.8-1.1,1.3V46.5c0-0.2,0-0.5-0.1-0.7c-0.1-0.3-0.3-0.5-0.4-0.6c-0.4-0.2-0.8-0.4-1.2-0.4h-5.2
		c-0.7,0-1.1,0.2-1.4,0.5c-0.3,0.3-0.4,0.7-0.4,1.3v8.6v0.1v6.9v0.2v0.7c3.5,0,6.8,0,10.1,0C258.4,62.8,258.5,62.6,258.6,62.5z"/>
	<path id="XMLID_1855_" class="st0" d="M288.7,62.6c0.5-0.4,1-0.8,1.6-1c0.6-0.2,1.1-0.4,1.7-0.4c0.6,0,1.3,0.1,1.9,0.4
		c0.6,0.3,1.2,0.6,1.7,1.1c0,0,0,0,0,0c3.5,0,6.8-0.1,9.9-0.1c-0.1-0.6-0.3-1.1-0.5-1.7c-0.6-1.6-1.3-2.9-2.3-4.1
		c-1-1.2-2.2-2.1-3.7-2.8c-1.4-0.7-3-1-4.8-1c-1.2,0-2.3,0.2-3.2,0.5c-0.9,0.4-1.7,0.8-2.4,1.3c-0.7,0.5-1.2,1.1-1.7,1.7
		c-0.4,0.6-0.8,1.1-1,1.6l-0.7-2.9c-0.1-0.2-0.2-0.5-0.2-0.7c-0.1-0.2-0.2-0.4-0.3-0.6c-0.1-0.2-0.3-0.3-0.5-0.4
		c-0.2-0.1-0.4-0.1-0.7-0.1H280c-0.2,0-0.4,0-0.6,0.1c-0.2,0-0.4,0.2-0.6,0.3l0.1-0.1c-0.2,0.1-0.4,0.3-0.5,0.6
		c-0.1,0.2-0.2,0.5-0.2,0.8v7.6c3.6,0,7.2,0,10.5-0.1C288.7,62.7,288.7,62.7,288.7,62.6z"/>
	<path id="XMLID_1851_" class="st0" d="M278.1,81c0,0.5,0.1,1,0.4,1.3c0.3,0.3,0.8,0.5,1.4,0.5h5.2c0.2,0,0.4,0,0.6-0.1
		s0.4-0.1,0.6-0.3c0.2-0.1,0.3-0.3,0.4-0.6c0.1-0.3,0.1-0.5,0.1-0.8v-15c0-0.5,0.1-0.9,0.3-1.4c-2.9-0.1-6-0.2-9.2-0.3V81z"/>
	<path id="XMLID_1849_" class="st0" d="M297.2,66.1v15c0,0.6,0.1,1.1,0.4,1.3c0.2,0.2,0.7,0.3,1.4,0.3h5.3c0.6,0,1-0.2,1.2-0.4
		c0.3-0.3,0.4-0.7,0.4-1.3V65.9c0-0.1,0-0.2,0-0.4c-2.8-0.2-5.7-0.3-8.8-0.4C297.2,65.4,297.2,65.8,297.2,66.1z"/>
	<path id="XMLID_1848_" class="st0" d="M329,68.2c0,1-0.2,2-0.4,2.8c-0.3,0.9-0.7,1.6-1.3,2.3c-0.6,0.6-1.2,1.2-2.1,1.5
		c-0.8,0.4-1.7,0.6-2.7,0.6c-1,0-2-0.2-2.8-0.6c-0.8-0.4-1.5-0.9-2.1-1.5c-0.6-0.6-1-1.4-1.3-2.3c-0.3-0.9-0.5-1.8-0.5-2.8
		c0-0.7,0.1-1.3,0.2-2c-2.7-0.2-5.5-0.4-8.4-0.6c-0.1,0.8-0.2,1.7-0.2,2.5c0,1.4,0.2,2.8,0.5,4.1c0.4,1.3,0.9,2.5,1.5,3.6
		c0.7,1.1,1.4,2.1,2.4,3.1c0.9,0.9,1.9,1.7,3.1,2.4c1.1,0.7,2.3,1.2,3.6,1.5c1.3,0.4,2.7,0.5,4.1,0.5c1.4,0,2.7-0.2,4-0.5
		c1.3-0.4,2.5-0.9,3.6-1.5c1.1-0.7,2.1-1.4,3.1-2.4c0.9-0.9,1.7-1.9,2.4-3.1c0.7-1.1,1.2-2.3,1.5-3.6c0.3-1.2,0.5-2.5,0.5-3.9
		c-2.6-0.3-5.5-0.7-8.7-1C329,67.6,329,67.9,329,68.2z"/>
	<path id="XMLID_1844_" class="st0" d="M319.8,61.4c0.8-0.4,1.7-0.6,2.8-0.6c1,0,1.9,0.2,2.7,0.6c0.5,0.2,1,0.6,1.4,0.9
		c3.6-0.1,6.9-0.1,9.9-0.2c-0.8-1.8-1.8-3.3-3.2-4.7c-1.4-1.4-3-2.4-4.8-3.2c-1.8-0.8-3.8-1.2-5.9-1.2c-1.4,0-2.8,0.2-4.1,0.5
		c-1.3,0.4-2.5,0.9-3.6,1.5c-1.1,0.6-2.1,1.4-3.1,2.3c-0.9,0.9-1.7,1.9-2.4,3c-0.4,0.7-0.7,1.4-1,2.1c3.4,0,6.7-0.1,9.7-0.1
		C318.7,62,319.2,61.7,319.8,61.4z"/>
	<path id="XMLID_1842_" class="st0" d="M339.4,81c0,0.6,0.1,1,0.4,1.3c0.2,0.3,0.7,0.4,1.3,0.4h5.3c0.5,0,0.9-0.2,1.3-0.4
		c0.3-0.3,0.5-0.7,0.5-1.3V70c-2.4-0.5-5.3-1-8.8-1.4V81z"/>
	<path id="XMLID_1839_" class="st0" d="M348.2,46.6c0-0.3,0-0.5-0.1-0.7c-0.1-0.2-0.2-0.4-0.4-0.6c-0.1-0.2-0.3-0.3-0.5-0.4
		c-0.2-0.1-0.3-0.1-0.5-0.1h-5.6c-0.6,0-1,0.2-1.3,0.5c-0.2,0.3-0.4,0.8-0.4,1.2V62c3.4-0.1,6.3-0.2,8.8-0.3V46.6z"/>
	<path id="XMLID_1837_" class="st0" d="M375.8,57.4c-1.4-1.4-3-2.4-4.8-3.2c-1.8-0.8-3.8-1.2-5.9-1.2c-1.4,0-2.8,0.2-4.1,0.5
		c-1.3,0.4-2.5,0.9-3.6,1.5c-1.1,0.6-2.1,1.4-3.1,2.3c-0.9,0.9-1.7,1.9-2.4,3c-0.2,0.4-0.4,0.8-0.6,1.1C364,61,364,60.5,364,60.5
		l-0.1,0.4c0.4-0.1,0.7-0.1,1.1-0.1c1,0,1.9,0.2,2.7,0.6c0.8,0.4,1.5,0.9,2.1,1.6c0.6,0.7,1,1.5,1.3,2.4c0.3,0.9,0.4,1.8,0.4,2.8
		c0,1-0.2,2-0.4,2.8c-0.3,0.9-0.7,1.6-1.3,2.3c-0.6,0.6-1.2,1.2-2.1,1.5c-0.8,0.4-1.7,0.6-2.7,0.6c-1,0-2-0.2-2.8-0.6
		c-0.5-0.2-1-0.5-1.4-0.9l0,0.1c0,0-1.5-1.7-10.7-3.6c0.1,0.6,0.2,1.2,0.4,1.8c0.4,1.3,0.9,2.5,1.5,3.6c0.7,1.1,1.4,2.1,2.4,3.1
		c0.9,0.9,1.9,1.7,3.1,2.4c1.1,0.7,2.3,1.2,3.6,1.5c1.3,0.4,2.7,0.5,4.1,0.5c1.4,0,2.7-0.2,4-0.5c1.3-0.4,2.5-0.9,3.6-1.5
		c1.1-0.7,2.1-1.4,3.1-2.4c0.9-0.9,1.7-1.9,2.4-3.1c0.7-1.1,1.2-2.3,1.5-3.6c0.4-1.3,0.5-2.7,0.5-4.1c0-2.1-0.4-4.1-1.2-6
		C378.2,60.4,377.2,58.8,375.8,57.4z"/>
	<path id="XMLID_1636_" class="st0" d="M410.9,54.3c-0.1-0.2-0.3-0.4-0.5-0.6c-0.2-0.2-0.4-0.3-0.6-0.3c-0.2,0-0.4-0.1-0.6-0.1h-3.4
		c-0.3,0-0.6,0-0.7,0.1c-0.2,0.1-0.3,0.2-0.5,0.3c-0.1,0.1-0.2,0.3-0.3,0.5c-0.1,0.2-0.2,0.5-0.3,0.7l-0.9,2.7
		c-0.5-0.6-0.9-1.1-1.5-1.7c-0.5-0.6-1.1-1.1-1.7-1.6c-0.6-0.5-1.3-0.8-2.1-1.1c-0.8-0.3-1.6-0.4-2.6-0.4c-2.1,0-4,0.4-5.8,1.2
		c-1.8,0.8-3.3,1.8-4.6,3.2c-1.3,1.4-2.3,3-3,4.8c-0.7,1.8-1.1,3.8-1.1,5.9c0,2.1,0.4,4.1,1.1,5.8c0.7,1.8,1.7,3.3,3,4.6
		s2.8,2.3,4.6,3c1.8,0.7,3.7,1.1,5.8,1.1c0.9,0,1.8-0.1,2.5-0.4c0.7-0.3,1.3-0.7,1.9-1.1c0.6-0.5,1.1-0.9,1.5-1.5
		c0.5-0.5,0.9-1,1.4-1.5c0,0.7,0,1.4,0,2c0,0.7-0.1,1.3-0.2,1.8c-0.2,0.7-0.5,1.3-1,1.8c-0.5,0.5-1.1,1-1.7,1.3
		c-0.7,0.4-1.4,0.6-2.1,0.8c-0.8,0.2-1.5,0.3-2.2,0.3c-0.4,0-0.9,0-1.4-0.1c-0.5,0-1-0.1-1.6-0.3c-0.5-0.1-1-0.3-1.5-0.5
		c-0.5-0.2-0.9-0.5-1.3-0.9c-0.5-0.4-1-0.6-1.3-0.6c-0.4,0-0.7,0.3-1.1,0.7l-2.2,3c-0.2,0.3-0.3,0.6-0.4,0.8c-0.1,0.3-0.1,0.5,0,0.7
		s0.2,0.4,0.3,0.6c0.1,0.2,0.3,0.3,0.5,0.5c0.7,0.6,1.5,1.1,2.3,1.6c0.9,0.5,1.8,0.8,2.7,1.1c0.9,0.3,1.9,0.5,2.8,0.7
		c1,0.1,1.8,0.2,2.7,0.2c2.1,0,4.1-0.3,6-1c1.9-0.7,3.5-1.7,4.8-3c1.4-1.3,2.4-2.9,3.2-4.7c0.8-1.9,1.2-4,1.2-6.4V55.1
		C411,54.8,411,54.5,410.9,54.3z M403.1,68.5c0,1-0.3,1.9-0.7,2.7c-0.4,0.8-0.9,1.6-1.6,2.2c-0.6,0.6-1.4,1.1-2.3,1.4
		c-0.9,0.3-1.8,0.5-2.8,0.5c-1,0-1.9-0.2-2.7-0.6c-0.8-0.4-1.5-0.9-2.1-1.5c-0.6-0.6-1-1.4-1.3-2.3c-0.3-0.9-0.5-1.8-0.5-2.9
		c0-1,0.2-1.9,0.5-2.8c0.3-0.9,0.8-1.7,1.3-2.3c0.6-0.7,1.3-1.2,2.1-1.6c0.8-0.4,1.7-0.6,2.7-0.6c1,0,1.9,0.2,2.8,0.6
		c0.9,0.4,1.6,0.9,2.3,1.5c0.6,0.6,1.2,1.4,1.6,2.2c0.4,0.8,0.6,1.7,0.7,2.7V68.5z"/>
	<path id="XMLID_1609_" class="st0" d="M442.4,54.1c-0.1-0.2-0.3-0.3-0.5-0.5c-0.2-0.1-0.6-0.2-1-0.2H435c-0.5,0-0.8,0.1-1.1,0.3
		c-0.3,0.2-0.5,0.5-0.6,1l-6.4,18.6l-6.5-18.6c-0.1-0.4-0.3-0.6-0.6-0.9c-0.2-0.2-0.6-0.4-0.9-0.4h-5.7c-0.8,0-1.3,0.2-1.6,0.7
		c-0.2,0.4-0.2,1,0,1.6l11,27l-3.6,9.4c0,0-0.1,0.1-0.1,0.2c-0.1,0.1-0.1,0.3-0.1,0.5c0,0.5,0.1,0.9,0.4,1.2
		c0.3,0.3,0.7,0.4,1.4,0.4h5.3c0.4,0,0.7-0.1,1-0.4c0.3-0.3,0.5-0.6,0.6-1l-0.1,0.1c0.2-0.6,0.5-1.4,0.9-2.5
		c0.4-1.1,0.9-2.3,1.5-3.7c0.6-1.4,1.2-3,1.9-4.7c0.7-1.7,1.4-3.5,2.1-5.3c0.7-1.8,1.5-3.7,2.2-5.6s1.5-3.8,2.3-5.6
		c0.7-1.9,1.5-3.6,2.2-5.3c0.7-1.7,1.3-3.3,1.9-4.7c0.1-0.2,0.2-0.5,0.2-0.7C442.5,54.5,442.5,54.3,442.4,54.1z"/>
	<path id="XMLID_1557_" class="st1" d="M171.6,51.7c-3.6-3.6-7.9-5.4-13-5.4c-3.4,0-6.4,0.8-9.2,2.5c1.8,1.8,4.1,3.6,6.8,5.1
		c0.8-0.2,1.6-0.3,2.4-0.3c3,0,5.6,1.1,7.8,3.2c0.2,0.2,0.4,0.4,0.5,0.6c0.3,0.3,0.5,0.6,0.7,0.9c1.6,0.4,3.1,0.6,4.6,0.8
		c1.1,0.1,2.2,0.2,3.3,0.2v-1.9C174.6,55.4,173.3,53.4,171.6,51.7z"/>
	<path id="XMLID_1315_" class="st0" d="M186.6,45.3C186.6,45.3,186.5,45.3,186.6,45.3c-0.2,0-0.2,0-0.3,0c-0.1,0-0.1,0-0.2,0
		l-5.2,1.8c-0.6,0.2-1,0.4-1.3,0.7c-0.3,0.2-0.5,0.6-0.5,1.1l0,5.5h-0.1v4.7c4.2-0.5,7.5-2.1,9-4.7l0-6.7
		C187.6,46.9,187.1,46.1,186.6,45.3z"/>
	<path id="XMLID_1314_" class="st0" d="M191.8,55.2c-2.3,6.5-14.3,8.1-26.8,3.6c-6.5-2.4-11.9-5.9-15.2-9.7
		c2.6,5.3,9.6,10.6,18.8,13.7c13,4.3,25.4,2.3,27.7-4.5c1.7-5-2.7-11.3-10.3-15.9C190.9,46.6,193.3,51.3,191.8,55.2z"/>
</g>
</svg>
