<?xml version="1.0" encoding="utf-8"?>
<!-- Generator: Adobe Illustrator 19.0.0, SVG Export Plug-In . SVG Version: 6.00 Build 0)  -->
<svg version="1.1" id="Capa_1" xmlns="http://www.w3.org/2000/svg" xmlns:xlink="http://www.w3.org/1999/xlink" x="0px" y="0px"
	 width="72.325px" height="72.326px" viewBox="0 0 72.325 72.326" enable-background="new 0 0 72.325 72.326" xml:space="preserve">
<g>
	<path fill="#EDEDED" d="M0.001,36.164c0,19.939,16.223,36.162,36.163,36.162c19.938,0,36.161-16.223,36.161-36.162
		C72.325,16.223,56.102,0,36.164,0C16.223,0,0.001,16.223,0.001,36.164L0.001,36.164z M4.014,36.164
		c0-17.729,14.422-32.15,32.149-32.15s32.147,14.422,32.147,32.15c0,17.727-14.42,32.149-32.147,32.149S4.014,53.891,4.014,36.164
		L4.014,36.164z"/>
	<path fill="#EDEDED" d="M49.208,24.787c-1.133-1.728-2.539-2.85-4.219-3.365c-1.092-0.344-3.438-0.517-7.035-0.517h-9.498v34.388
		h5.873V42.316h3.869c2.687,0,4.737-0.164,6.153-0.493c1.044-0.265,2.067-0.808,3.077-1.629c1.012-0.819,1.842-1.95,2.496-3.388
		c0.655-1.439,0.982-3.214,0.982-5.324C50.907,28.748,50.34,26.514,49.208,24.787z M44.169,34.287
		c-0.448,0.773-1.069,1.342-1.863,1.705c-0.793,0.363-2.363,0.545-4.713,0.545H34.33v-9.853h2.881c2.149,0,3.578,0.081,4.292,0.237
		c0.965,0.205,1.766,0.72,2.395,1.539c0.631,0.822,0.947,1.863,0.947,3.127C44.844,32.615,44.62,33.514,44.169,34.287z"/>
</g>
</svg>
