<?xml version="1.0" encoding="utf-8"?>
<!-- Generator: Adobe Illustrator 19.0.0, SVG Export Plug-In . SVG Version: 6.00 Build 0)  -->
<svg version="1.1" id="Capa_1" xmlns="http://www.w3.org/2000/svg" xmlns:xlink="http://www.w3.org/1999/xlink" x="0px" y="0px"
	 width="57.035px" height="49.209px" viewBox="0 0 57.035 49.209" enable-background="new 0 0 57.035 49.209" xml:space="preserve">
<g id="XMLID_317_">
	<path id="XMLID_4533_" fill="#FFFFFF" d="M42.77,31.548c-2.804,0-5.304,1.336-6.903,3.401l-13.392-7.48
		c0.314-0.901,0.486-1.873,0.486-2.875c0-1.012-0.172-1.974-0.496-2.885l13.382-7.471c1.589,2.075,4.1,3.422,6.914,3.422
		c4.798,0,8.715-3.908,8.715-8.716s-3.907-8.715-8.715-8.715s-8.715,3.907-8.715,8.715c0,1.012,0.172,1.984,0.496,2.885L21.169,19.3
		c-1.589-2.085-4.1-3.421-6.914-3.421c-4.798,0-8.715,3.907-8.715,8.715s3.918,8.716,8.726,8.716c2.814,0,5.324-1.346,6.924-3.432
		l13.382,7.481c-0.324,0.911-0.506,1.893-0.506,2.905c0,4.798,3.907,8.716,8.715,8.716s8.715-3.908,8.715-8.716
		S47.578,31.548,42.77,31.548L42.77,31.548z M42.77,2.972c3.3,0,5.983,2.682,5.983,5.983c0,3.3-2.683,5.982-5.983,5.982
		c-3.3,0-5.982-2.682-5.982-5.982C36.788,5.654,39.48,2.972,42.77,2.972L42.77,2.972z M14.265,30.577
		c-3.3,0-5.983-2.682-5.983-5.983c0-3.3,2.682-5.982,5.983-5.982c3.3,0,5.982,2.682,5.982,5.982
		C20.247,27.894,17.555,30.577,14.265,30.577L14.265,30.577z M42.77,46.237c-3.3,0-5.982-2.683-5.982-5.983
		c0-3.3,2.682-5.983,5.982-5.983c3.3,0,5.983,2.682,5.983,5.983C48.753,43.554,46.07,46.237,42.77,46.237L42.77,46.237z
		 M42.77,46.237"/>
</g>
</svg>
