<?xml version="1.0" encoding="utf-8"?>
<!-- Generator: Adobe Illustrator 20.1.0, SVG Export Plug-In . SVG Version: 6.00 Build 0)  -->
<svg version="1.1" id="Capa_1" xmlns="http://www.w3.org/2000/svg" xmlns:xlink="http://www.w3.org/1999/xlink" x="0px" y="0px"
	 viewBox="0 0 57 49.2" style="enable-background:new 0 0 57 49.2;" xml:space="preserve">
<style type="text/css">
	.st0{fill:#EFEFEF;}
</style>
<g id="XMLID_317_">
	<path id="XMLID_4533_" class="st0" d="M42.8,31.5c-2.8,0-5.3,1.3-6.9,3.4l-13.4-7.5c0.3-0.9,0.5-1.9,0.5-2.9c0-1-0.2-2-0.5-2.9
		l13.4-7.5c1.6,2.1,4.1,3.4,6.9,3.4c4.8,0,8.7-3.9,8.7-8.7s-3.9-8.7-8.7-8.7S34,4.1,34,8.9c0,1,0.2,2,0.5,2.9l-13.4,7.5
		c-1.6-2.1-4.1-3.4-6.9-3.4c-4.8,0-8.7,3.9-8.7,8.7s3.9,8.7,8.7,8.7c2.8,0,5.3-1.3,6.9-3.4l13.4,7.5c-0.3,0.9-0.5,1.9-0.5,2.9
		c0,4.8,3.9,8.7,8.7,8.7s8.7-3.9,8.7-8.7S47.6,31.5,42.8,31.5L42.8,31.5z M42.8,3c3.3,0,6,2.7,6,6c0,3.3-2.7,6-6,6c-3.3,0-6-2.7-6-6
		C36.8,5.7,39.5,3,42.8,3L42.8,3z M14.3,30.6c-3.3,0-6-2.7-6-6c0-3.3,2.7-6,6-6c3.3,0,6,2.7,6,6S17.6,30.6,14.3,30.6L14.3,30.6z
		 M42.8,46.2c-3.3,0-6-2.7-6-6c0-3.3,2.7-6,6-6s6,2.7,6,6C48.8,43.6,46.1,46.2,42.8,46.2L42.8,46.2z"/>
</g>
</svg>
