<?xml version="1.0" encoding="utf-8"?>
<!-- Generator: Adobe Illustrator 19.0.0, SVG Export Plug-In . SVG Version: 6.00 Build 0)  -->
<svg version="1.1" id="Capa_1" xmlns="http://www.w3.org/2000/svg" xmlns:xlink="http://www.w3.org/1999/xlink" x="0px" y="0px"
	 width="72.325px" height="72.326px" viewBox="0 0 72.325 72.326" enable-background="new 0 0 72.325 72.326" xml:space="preserve">
<g>
	<g>
		<g>
			<path id="XMLID_6_" fill="#EDEDED" d="M43.694,42.707c0.001,0.062,0.005,0.121,0.005,0.184c0,6.311-5.134,11.443-11.443,11.443
				c-6.31,0-11.444-5.133-11.444-11.443c0-3.813,1.878-7.195,4.755-9.275l-0.39-3.42c-4.447,2.49-7.463,7.246-7.463,12.695
				c0,8.019,6.523,14.541,14.542,14.541c6.797,0,12.517-4.688,14.103-11L43.694,42.707z"/>
		</g>
		<circle id="XMLID_5_" fill="#EDEDED" cx="30.389" cy="18.593" r="3.7"/>
		<path id="XMLID_4_" fill="#EDEDED" d="M54.241,47.264l-8.303-11.608c-0.435-0.608-1.16-0.896-1.896-0.833
			c-0.055-0.004-0.109-0.01-0.164-0.01h-9.484l-0.235-2.065h7.05c0.819,0,1.484-0.664,1.484-1.484c0-0.819-0.665-1.484-1.484-1.484
			H33.82l-0.386-3.389c-0.226-1.984-2.017-3.408-3.999-3.184c-1.983,0.227-3.407,2.018-3.183,4l1.09,9.574
			c0.211,1.852,1.785,3.215,3.607,3.205c0.006,0,0.012,0.001,0.012,0.001h12.416l7.119,9.955c0.68,0.952,2.07,1.124,3.104,0.384
			C54.635,49.586,54.921,48.215,54.241,47.264z"/>
	</g>
	<path fill="#EDEDED" d="M0,36.164c0,19.939,16.223,36.162,36.163,36.162c19.939,0,36.162-16.223,36.162-36.162
		C72.325,16.223,56.103,0,36.163,0C16.223,0,0,16.223,0,36.164L0,36.164z M4.013,36.164c0-17.729,14.423-32.15,32.15-32.15
		c17.727,0,32.148,14.422,32.148,32.15c0,17.727-14.421,32.149-32.148,32.149S4.013,53.891,4.013,36.164L4.013,36.164z"/>
</g>
</svg>
