<?xml version="1.0" encoding="utf-8"?>
<!-- Generator: Adobe Illustrator 19.0.0, SVG Export Plug-In . SVG Version: 6.00 Build 0)  -->
<svg version="1.1" id="Capa_1" xmlns="http://www.w3.org/2000/svg" xmlns:xlink="http://www.w3.org/1999/xlink" x="0px" y="0px"
	 width="72.325px" height="72.326px" viewBox="0 0 72.325 72.326" enable-background="new 0 0 72.325 72.326" xml:space="preserve">
<g>
	<g>
		<g>
			<g>
				<g>
					<path id="XMLID_27_" fill="#000" d="M15.155,34.184c5.031-5.988,12.574-9.797,21.01-9.797"/>
					<path id="XMLID_26_" fill="#000" d="M17.259,35.952l-4.211-3.537c5.753-6.85,14.179-10.777,23.116-10.777v5.5
						C28.856,27.138,21.965,30.351,17.259,35.952z"/>
				</g>
				<g>
					<path id="XMLID_25_" fill="#000" d="M36.165,24.387c8.432,0,15.975,3.806,21.006,9.792"/>
					<path id="XMLID_24_" fill="#000" d="M55.065,35.948c-4.705-5.599-11.595-8.81-18.9-8.81v-5.5
						c8.934,0,17.357,3.926,23.111,10.771L55.065,35.948z"/>
				</g>
			</g>
			<g>
				<g>
					<path id="XMLID_23_" fill="#000" d="M23.374,41.082c3.063-3.646,7.656-5.965,12.791-5.965"/>
					<path id="XMLID_10_" fill="#000" d="M25.479,42.85l-4.211-3.537c3.708-4.414,9.138-6.945,14.896-6.945v5.5
						C32.034,37.867,28.139,39.684,25.479,42.85z"/>
				</g>
				<g>
					<path id="XMLID_9_" fill="#000" d="M36.165,35.117c5.133,0,9.725,2.316,12.787,5.96"/>
					<path id="XMLID_8_" fill="#000" d="M46.846,42.846c-2.658-3.164-6.552-4.979-10.682-4.979v-5.5
						c5.759,0,11.188,2.53,14.893,6.941L46.846,42.846z"/>
				</g>
			</g>
			<g>
				<g>
					<path id="XMLID_7_" fill="#000" d="M36.165,45.784c-1.855,0-3.512,0.837-4.619,2.153"/>
					<path id="XMLID_6_" fill="#000" d="M33.651,49.707L29.44,46.17c1.673-1.993,4.124-3.136,6.725-3.136v5.5
						C35.193,48.534,34.277,48.962,33.651,49.707z"/>
				</g>
				<g>
					<path id="XMLID_5_" fill="#000" d="M40.776,47.93c-1.105-1.312-2.762-2.146-4.611-2.146"/>
					<path id="XMLID_4_" fill="#000" d="M38.674,49.702c-0.626-0.742-1.541-1.168-2.51-1.168v-5.5
						c2.595,0,5.042,1.139,6.715,3.123L38.674,49.702z"/>
				</g>
			</g>
		</g>
	</g>
	<g>
		<path fill="#000" d="M0,36.164c0,19.939,16.223,36.162,36.162,36.162c19.939,0,36.162-16.223,36.162-36.162
			C72.325,16.223,56.102,0,36.163,0C16.223,0,0,16.223,0,36.164L0,36.164z M4.014,36.164c0-17.729,14.422-32.15,32.148-32.15
			c17.726,0,32.148,14.422,32.148,32.15c0,17.727-14.42,32.149-32.148,32.149C18.436,68.313,4.014,53.891,4.014,36.164L4.014,36.164
			z"/>
	</g>
</g>
</svg>
